<svg width="840" height="489" viewBox="0 0 840 489" fill="none" xmlns="http://www.w3.org/2000/svg">
<rect x="0" y="0" width="840" height="489" rx="15.1" fill="#F3F1EF"/>
<g transform="translate(67.2,39.12) scale(0.84)">
<rect x="1" y="1" width="838" height="487" rx="9" fill="#F3F1EF"/>
<rect x="1" y="1" width="838" height="487" rx="9" stroke="#0A0B0D" stroke-width="2"/>
<mask id="path-2-inside-1_74_4476" fill="white">
<path d="M0 10C0 4.47715 4.47715 0 10 0H830C835.523 0 840 4.47715 840 10V31H0V10Z"/>
</mask>
<path d="M0 0H840H0M840 33H0V29H840V33ZM840 29M0 31V0V31M0 31M840 0V31V0" fill="#0A0B0D" mask="url(#path-2-inside-1_74_4476)"/>
<circle cx="22" cy="15.5" r="5.4" stroke="#0A0B0D" stroke-width="1.2"/>
<circle cx="38" cy="15.5" r="5.4" stroke="#0A0B0D" stroke-width="1.2"/>
<circle cx="54" cy="15.5" r="5.4" stroke="#0A0B0D" stroke-width="1.2"/>
<rect x="77.6" y="8.6" width="692.8" height="13.8" rx="6.9" stroke="#0A0B0D" stroke-width="1.2"/>
<path d="M0 31H55V489H10C7.34784 489 4.8043 487.946 2.92893 486.071C1.05357 484.196 0 481.652 0 479V31Z" fill="#EEEBE7"/>
<path d="M32 44H22C19.2386 44 17 46.2386 17 49V59C17 61.7614 19.2386 64 22 64H32C34.7614 64 37 61.7614 37 59V49C37 46.2386 34.7614 44 32 44Z" fill="#D7352D"/>
<path d="M28 50H26C24.8954 50 24 50.8954 24 52V56C24 57.1046 24.8954 58 26 58H28C29.1046 58 30 57.1046 30 56V52C30 50.8954 29.1046 50 28 50Z" fill="white"/>
<path d="M32 86H22C18.6863 86 16 88.6863 16 92V102C16 105.314 18.6863 108 22 108H32C35.3137 108 38 105.314 38 102V92C38 88.6863 35.3137 86 32 86Z" fill="#D7352D"/>
<path d="M30.7 92H23.3C22.582 92 22 92.582 22 93.3C22 94.018 22.582 94.6 23.3 94.6H30.7C31.418 94.6 32 94.018 32 93.3C32 92.582 31.418 92 30.7 92Z" fill="white"/>
<path d="M27.7 97H23.3C22.582 97 22 97.582 22 98.3C22 99.018 22.582 99.6 23.3 99.6H27.7C28.418 99.6 29 99.018 29 98.3C29 97.582 28.418 97 27.7 97Z" fill="white"/>
<path d="M30.7 102H23.3C22.582 102 22 102.582 22 103.3C22 104.018 22.582 104.6 23.3 104.6H30.7C31.418 104.6 32 104.018 32 103.3C32 102.582 31.418 102 30.7 102Z" fill="white"/>
<path d="M32 124H22C18.6863 124 16 126.686 16 130V140C16 143.314 18.6863 146 22 146H32C35.3137 146 38 143.314 38 140V130C38 126.686 35.3137 124 32 124Z" stroke="#9C9FA2" stroke-width="1.4"/>
<path d="M32 160H22C18.6863 160 16 162.686 16 166V176C16 179.314 18.6863 182 22 182H32C35.3137 182 38 179.314 38 176V166C38 162.686 35.3137 160 32 160Z" stroke="#9C9FA2" stroke-width="1.4"/>
<path d="M32 196H22C18.6863 196 16 198.686 16 202V212C16 215.314 18.6863 218 22 218H32C35.3137 218 38 215.314 38 212V202C38 198.686 35.3137 196 32 196Z" stroke="#9C9FA2" stroke-width="1.4"/>
<path d="M32 232H22C18.6863 232 16 234.686 16 238V248C16 251.314 18.6863 254 22 254H32C35.3137 254 38 251.314 38 248V238C38 234.686 35.3137 232 32 232Z" stroke="#9C9FA2" stroke-width="1.4"/>
<path d="M27 138C28.6569 138 30 136.657 30 135C30 133.343 28.6569 132 27 132C25.3431 132 24 133.343 24 135C24 136.657 25.3431 138 27 138Z" fill="#9C9FA2"/>
<path d="M30.5 169H23.5C22.6716 169 22 169.672 22 170.5C22 171.328 22.6716 172 23.5 172H30.5C31.3284 172 32 171.328 32 170.5C32 169.672 31.3284 169 30.5 169Z" fill="#9C9FA2"/>
<path d="M27.5 174H23.5C22.6716 174 22 174.672 22 175.5C22 176.328 22.6716 177 23.5 177H27.5C28.3284 177 29 176.328 29 175.5C29 174.672 28.3284 174 27.5 174Z" fill="#9C9FA2"/>
<path d="M29.5 205H24.5C23.6716 205 23 205.672 23 206.5C23 207.328 23.6716 208 24.5 208H29.5C30.3284 208 31 207.328 31 206.5C31 205.672 30.3284 205 29.5 205Z" fill="#9C9FA2"/>
<path d="M29.5 210H24.5C23.6716 210 23 210.672 23 211.5C23 212.328 23.6716 213 24.5 213H29.5C30.3284 213 31 212.328 31 211.5C31 210.672 30.3284 210 29.5 210Z" fill="#9C9FA2"/>
<path d="M22.9996 245.4C24.3251 245.4 25.3996 244.325 25.3996 243C25.3996 241.674 24.3251 240.6 22.9996 240.6C21.6741 240.6 20.5996 241.674 20.5996 243C20.5996 244.325 21.6741 245.4 22.9996 245.4Z" fill="#9C9FA2"/>
<path d="M30.9996 245.4C32.3251 245.4 33.3996 244.325 33.3996 243C33.3996 241.674 32.3251 240.6 30.9996 240.6C29.6741 240.6 28.5996 241.674 28.5996 243C28.5996 244.325 29.6741 245.4 30.9996 245.4Z" fill="#9C9FA2"/>
<path d="M27 464C32.5228 464 37 459.523 37 454C37 448.477 32.5228 444 27 444C21.4772 444 17 448.477 17 454C17 459.523 21.4772 464 27 464Z" fill="#D9D9D9"/>
<path d="M55 31V489" stroke="#DADEE1"/>
<path d="M249 31H55V489H249V31Z" fill="white"/>
<path d="M231 44H73C69.6863 44 67 46.6863 67 50V64C67 67.3137 69.6863 70 73 70H231C234.314 70 237 67.3137 237 64V50C237 46.6863 234.314 44 231 44Z" fill="#F3F1EF" stroke="#DADEE1"/>
<path d="M168 53H82C80.3431 53 79 54.3431 79 56V57C79 58.6569 80.3431 60 82 60H168C169.657 60 171 58.6569 171 57V56C171 54.3431 169.657 53 168 53Z" fill="#0A0B0D"/>
<path d="M217 54L221 58L225 54" stroke="#9C9FA2" stroke-width="1.4"/>
<path d="M79 94C81.2091 94 83 92.2091 83 90C83 87.7909 81.2091 86 79 86C76.7909 86 75 87.7909 75 90C75 92.2091 76.7909 94 79 94Z" stroke="#9C9FA2" stroke-width="1.4"/>
<path d="M82 93L85 96" stroke="#9C9FA2" stroke-width="1.4"/>
<path d="M168 87H96C94.3431 87 93 88.3431 93 90C93 91.6569 94.3431 93 96 93H168C169.657 93 171 91.6569 171 90C171 88.3431 169.657 87 168 87Z" fill="#9C9FA2"/>
<path d="M67 104H237" stroke="#DADEE1"/>
<path d="M249 145H55V174H249V145Z" fill="#F3F1EF"/>
<path d="M58 145H55V174H58V145Z" fill="#D7352D"/>
<path d="M81 121H74C72.3431 121 71 122.343 71 124V131C71 132.657 72.3431 134 74 134H81C82.6569 134 84 132.657 84 131V124C84 122.343 82.6569 121 81 121Z" fill="#D7352D"/>
<path d="M74 127.5L76.5 130L81 125" stroke="white" stroke-width="1.6"/>
<path d="M150 124H98C96.3431 124 95 125.343 95 127V128C95 129.657 96.3431 131 98 131H150C151.657 131 153 129.657 153 128V127C153 125.343 151.657 124 150 124Z" fill="#0A0B0D"/>
<path d="M81 153H74C72.3431 153 71 154.343 71 156V163C71 164.657 72.3431 166 74 166H81C82.6569 166 84 164.657 84 163V156C84 154.343 82.6569 153 81 153Z" fill="white" stroke="#D7352D" stroke-width="1.6"/>
<path d="M140 156H98C96.3431 156 95 157.343 95 159V160C95 161.657 96.3431 163 98 163H140C141.657 163 143 161.657 143 160V159C143 157.343 141.657 156 140 156Z" fill="#0A0B0D"/>
<path d="M81 182H74C72.3431 182 71 183.343 71 185V192C71 193.657 72.3431 195 74 195H81C82.6569 195 84 193.657 84 192V185C84 183.343 82.6569 182 81 182Z" fill="white" stroke="#9C9FA2" stroke-width="1.4"/>
<path d="M144 185H98C96.3431 185 95 186.343 95 188V189C95 190.657 96.3431 192 98 192H144C145.657 192 147 190.657 147 189V188C147 186.343 145.657 185 144 185Z" fill="#0A0B0D"/>
<path d="M231 190.5C232.381 190.5 233.5 189.381 233.5 188C233.5 186.619 232.381 185.5 231 185.5C229.619 185.5 228.5 186.619 228.5 188C228.5 189.381 229.619 190.5 231 190.5Z" fill="#CFD3D6"/>
<path d="M81 211H74C72.3431 211 71 212.343 71 214V221C71 222.657 72.3431 224 74 224H81C82.6569 224 84 222.657 84 221V214C84 212.343 82.6569 211 81 211Z" fill="white" stroke="#9C9FA2" stroke-width="1.4"/>
<path d="M138 214H98C96.3431 214 95 215.343 95 217V218C95 219.657 96.3431 221 98 221H138C139.657 221 141 219.657 141 218V217C141 215.343 139.657 214 138 214Z" fill="#0A0B0D"/>
<path d="M231 219.5C232.381 219.5 233.5 218.381 233.5 217C233.5 215.619 232.381 214.5 231 214.5C229.619 214.5 228.5 215.619 228.5 217C228.5 218.381 229.619 219.5 231 219.5Z" fill="#CFD3D6"/>
<path d="M81 240H74C72.3431 240 71 241.343 71 243V250C71 251.657 72.3431 253 74 253H81C82.6569 253 84 251.657 84 250V243C84 241.343 82.6569 240 81 240Z" fill="white" stroke="#9C9FA2" stroke-width="1.4"/>
<path d="M142 243H98C96.3431 243 95 244.343 95 246V247C95 248.657 96.3431 250 98 250H142C143.657 250 145 248.657 145 247V246C145 244.343 143.657 243 142 243Z" fill="#0A0B0D"/>
<path d="M231 248.5C232.381 248.5 233.5 247.381 233.5 246C233.5 244.619 232.381 243.5 231 243.5C229.619 243.5 228.5 244.619 228.5 246C228.5 247.381 229.619 248.5 231 248.5Z" fill="#CFD3D6"/>
<path d="M81 269H74C72.3431 269 71 270.343 71 272V279C71 280.657 72.3431 282 74 282H81C82.6569 282 84 280.657 84 279V272C84 270.343 82.6569 269 81 269Z" fill="white" stroke="#9C9FA2" stroke-width="1.4"/>
<path d="M150 272H98C96.3431 272 95 273.343 95 275V276C95 277.657 96.3431 279 98 279H150C151.657 279 153 277.657 153 276V275C153 273.343 151.657 272 150 272Z" fill="#0A0B0D"/>
<path d="M81 298H74C72.3431 298 71 299.343 71 301V308C71 309.657 72.3431 311 74 311H81C82.6569 311 84 309.657 84 308V301C84 299.343 82.6569 298 81 298Z" fill="#D7352D"/>
<path d="M74 304.5L76.5 307L81 302" stroke="white" stroke-width="1.6"/>
<path d="M136 301H98C96.3431 301 95 302.343 95 304V305C95 306.657 96.3431 308 98 308H136C137.657 308 139 306.657 139 305V304C139 302.343 137.657 301 136 301Z" fill="#0A0B0D"/>
<path d="M81 327H74C72.3431 327 71 328.343 71 330V337C71 338.657 72.3431 340 74 340H81C82.6569 340 84 338.657 84 337V330C84 328.343 82.6569 327 81 327Z" fill="#D7352D"/>
<path d="M74 333.5L76.5 336L81 331" stroke="white" stroke-width="1.6"/>
<path d="M154 330H98C96.3431 330 95 331.343 95 333V334C95 335.657 96.3431 337 98 337H154C155.657 337 157 335.657 157 334V333C157 331.343 155.657 330 154 330Z" fill="#0A0B0D"/>
<path d="M81 356H74C72.3431 356 71 357.343 71 359V366C71 367.657 72.3431 369 74 369H81C82.6569 369 84 367.657 84 366V359C84 357.343 82.6569 356 81 356Z" fill="#D7352D"/>
<path d="M74 362.5L76.5 365L81 360" stroke="white" stroke-width="1.6"/>
<path d="M140 359H98C96.3431 359 95 360.343 95 362V363C95 364.657 96.3431 366 98 366H140C141.657 366 143 364.657 143 363V362C143 360.343 141.657 359 140 359Z" fill="#0A0B0D"/>
<path d="M81 385H74C72.3431 385 71 386.343 71 388V395C71 396.657 72.3431 398 74 398H81C82.6569 398 84 396.657 84 395V388C84 386.343 82.6569 385 81 385Z" fill="white" stroke="#9C9FA2" stroke-width="1.4"/>
<path d="M132 388H98C96.3431 388 95 389.343 95 391V392C95 393.657 96.3431 395 98 395H132C133.657 395 135 393.657 135 392V391C135 389.343 133.657 388 132 388Z" fill="#0A0B0D"/>
<path d="M231 393.5C232.381 393.5 233.5 392.381 233.5 391C233.5 389.619 232.381 388.5 231 388.5C229.619 388.5 228.5 389.619 228.5 391C228.5 392.381 229.619 393.5 231 393.5Z" fill="#CFD3D6"/>
<path d="M81 414H74C72.3431 414 71 415.343 71 417V424C71 425.657 72.3431 427 74 427H81C82.6569 427 84 425.657 84 424V417C84 415.343 82.6569 414 81 414Z" fill="white" stroke="#9C9FA2" stroke-width="1.4"/>
<path d="M148 417H98C96.3431 417 95 418.343 95 420V421C95 422.657 96.3431 424 98 424H148C149.657 424 151 422.657 151 421V420C151 418.343 149.657 417 148 417Z" fill="#0A0B0D"/>
<path d="M249 31V489" stroke="#DADEE1"/>
<mask id="mask0_74_4476" style="mask-type:luminance" maskUnits="userSpaceOnUse" x="249" y="72" width="588" height="417">
<path d="M837 72H249V489H837V72Z" fill="white"/>
</mask>
<g mask="url(#mask0_74_4476)">
<path d="M827 72H259C253.477 72 249 76.4771 249 82V479C249 484.523 253.477 489 259 489H827C832.523 489 837 484.523 837 479V82C837 76.4772 832.523 72 827 72Z" fill="#E7E9EA"/>
<path d="M611 72C651 150 761 150 761 240C761 322 821 360 844 432" stroke="#C6D6DF" stroke-width="20" stroke-linecap="round"/>
<path d="M393 356H329C310.222 356 295 371.222 295 390V418C295 436.778 310.222 452 329 452H393C411.778 452 427 436.778 427 418V390C427 371.222 411.778 356 393 356Z" fill="#DDE7DD"/>
<path d="M249 200C359 180 479 232 599 210C719 188 779 198 844 222" stroke="white" stroke-width="8"/>
<path d="M519 72C499 180 547 300 511 489" stroke="white" stroke-width="8"/>
<path d="M249 317.908C418.867 298.763 601.8 343.435 837 320.035" stroke="white" stroke-width="4"/>
<path d="M371 72C359 220 387 360 359 489" stroke="white" stroke-width="4"/>
<path d="M249 128C476.182 118 663.273 132 837 120" stroke="white" stroke-width="4"/>
<path d="M659 240C699 320 759 360 837 372" stroke="white" stroke-width="4"/>
<path d="M559 300C593.667 274.667 630.333 253.333 669 236" stroke="#D7352D" stroke-width="1.6" stroke-dasharray="5 4"/>
<path d="M382.664 244.359L373.005 246.947C371.405 247.376 370.455 249.021 370.884 250.622L371.66 253.519C372.089 255.12 373.734 256.07 375.335 255.641L384.994 253.053C386.594 252.624 387.544 250.979 387.115 249.378L386.339 246.481C385.91 244.88 384.265 243.93 382.664 244.359Z" fill="#2D9D5A"/>
<path d="M380.741 246.842L375.911 248.136C374.844 248.422 374.211 249.518 374.497 250.585L374.808 251.744C375.094 252.811 376.19 253.444 377.257 253.158L382.087 251.864C383.154 251.579 383.787 250.482 383.501 249.415L383.19 248.256C382.905 247.189 381.808 246.556 380.741 246.842Z" fill="#BFE3CC"/>
<path d="M475.322 173.701L466.05 169.955C464.514 169.334 462.765 170.076 462.145 171.612L461.021 174.394C460.4 175.93 461.142 177.679 462.679 178.299L471.95 182.045C473.487 182.666 475.235 181.924 475.856 180.388L476.98 177.606C477.6 176.07 476.858 174.321 475.322 173.701Z" fill="#8A9298"/>
<path d="M472.292 174.526L467.656 172.653C466.632 172.239 465.466 172.734 465.053 173.758L464.603 174.871C464.189 175.895 464.684 177.06 465.708 177.474L470.344 179.347C471.368 179.761 472.534 179.266 472.948 178.242L473.397 177.129C473.811 176.105 473.316 174.94 472.292 174.526Z" fill="#CDD2D6"/>
<path d="M674.706 232.437L664.858 230.7C663.226 230.412 661.67 231.502 661.382 233.134L660.861 236.088C660.574 237.72 661.663 239.276 663.295 239.563L673.143 241.3C674.775 241.588 676.331 240.498 676.618 238.866L677.139 235.912C677.427 234.28 676.338 232.724 674.706 232.437Z" fill="#2D9D5A"/>
<path d="M671.914 233.874L666.99 233.005C665.902 232.814 664.865 233.54 664.673 234.628L664.465 235.809C664.273 236.897 664.999 237.935 666.087 238.126L671.011 238.995C672.099 239.186 673.136 238.46 673.328 237.372L673.536 236.191C673.728 235.103 673.002 234.065 671.914 233.874Z" fill="#BFE3CC"/>
<path d="M622.955 396.559L613.174 398.638C611.553 398.982 610.519 400.575 610.863 402.196L611.487 405.13C611.831 406.751 613.424 407.786 615.045 407.441L624.826 405.362C626.447 405.018 627.482 403.425 627.137 401.804L626.513 398.869C626.169 397.249 624.576 396.214 622.955 396.559Z" fill="#8A9298"/>
<path d="M620.905 398.937L616.014 399.977C614.933 400.206 614.244 401.268 614.473 402.349L614.723 403.522C614.953 404.603 616.015 405.293 617.095 405.063L621.986 404.023C623.066 403.794 623.756 402.732 623.526 401.651L623.277 400.477C623.047 399.397 621.985 398.707 620.905 398.937Z" fill="#CDD2D6"/>
<path d="M445.661 361.065L437.371 355.473C435.997 354.547 434.133 354.909 433.206 356.283L431.529 358.77C430.602 360.144 430.965 362.008 432.338 362.935L440.629 368.527C442.002 369.453 443.867 369.091 444.793 367.717L446.471 365.23C447.397 363.856 447.035 361.992 445.661 361.065Z" fill="#2D9D5A"/>
<path d="M442.526 361.242L438.381 358.447C437.465 357.829 436.222 358.07 435.604 358.986L434.933 359.981C434.316 360.897 434.557 362.14 435.473 362.758L439.618 365.553C440.534 366.171 441.777 365.93 442.395 365.014L443.066 364.019C443.683 363.103 443.442 361.86 442.526 361.242Z" fill="#BFE3CC"/>
<path d="M730.301 313.86L720.326 313.162C718.673 313.047 717.239 314.293 717.124 315.946L716.914 318.938C716.799 320.591 718.045 322.025 719.698 322.14L729.674 322.838C731.326 322.953 732.76 321.707 732.875 320.054L733.085 317.062C733.2 315.409 731.954 313.975 730.301 313.86Z" fill="#E09A00"/>
<path d="M727.675 315.581L722.688 315.232C721.586 315.155 720.63 315.986 720.553 317.088L720.469 318.285C720.392 319.386 721.223 320.342 722.325 320.419L727.313 320.768C728.414 320.845 729.37 320.014 729.447 318.912L729.531 317.715C729.608 316.613 728.777 315.658 727.675 315.581Z" fill="#F3D9A0"/>
<path d="M559 318C568.941 318 577 309.941 577 300C577 290.059 568.941 282 559 282C549.059 282 541 290.059 541 300C541 309.941 549.059 318 559 318Z" fill="#D7352D" fill-opacity="0.1"/>
<path d="M559 318C568.941 318 577 309.941 577 300C577 290.059 568.941 282 559 282C549.059 282 541 290.059 541 300C541 309.941 549.059 318 559 318Z" stroke="#D7352D" stroke-opacity="0.5" stroke-width="1.4"/>
<path d="M561.081 293.603L552.42 298.603C550.985 299.431 550.494 301.266 551.322 302.701L552.822 305.299C553.651 306.734 555.485 307.226 556.92 306.397L565.581 301.397C567.015 300.569 567.507 298.734 566.679 297.299L565.179 294.701C564.35 293.266 562.515 292.774 561.081 293.603Z" fill="#D7352D"/>
<path d="M559.866 296.498L555.536 298.998C554.579 299.551 554.251 300.774 554.804 301.73L555.404 302.77C555.956 303.726 557.179 304.054 558.136 303.502L562.466 301.002C563.422 300.449 563.75 299.226 563.198 298.27L562.598 297.23C562.046 296.274 560.822 295.946 559.866 296.498Z" fill="#F4C2BD"/>
<path d="M821 84H811C807.686 84 805 86.6863 805 90V100C805 103.314 807.686 106 811 106H821C824.314 106 827 103.314 827 100V90C827 86.6863 824.314 84 821 84Z" fill="white" stroke="#DADEE1"/>
<path d="M809 89H823L818 95V101H814V95L809 89Z" fill="#9C9FA2"/>
<path d="M826 88C827.657 88 829 86.6569 829 85C829 83.3431 827.657 82 826 82C824.343 82 823 83.3431 823 85C823 86.6569 824.343 88 826 88Z" fill="#2D9D5A"/>
<path d="M821 430H811C807.686 430 805 432.686 805 436V468C805 471.314 807.686 474 811 474H821C824.314 474 827 471.314 827 468V436C827 432.686 824.314 430 821 430Z" fill="white" stroke="#DADEE1"/>
<path d="M819 440H813C812.448 440 812 440.448 812 441C812 441.552 812.448 442 813 442H819C819.552 442 820 441.552 820 441C820 440.448 819.552 440 819 440Z" fill="#9C9FA2"/>
<path d="M817 438C817 437.448 816.552 437 816 437C815.448 437 815 437.448 815 438V444C815 444.552 815.448 445 816 445C816.552 445 817 444.552 817 444V438Z" fill="#9C9FA2"/>
<path d="M807 452H825" stroke="#DADEE1"/>
<path d="M819 461H813C812.448 461 812 461.448 812 462C812 462.552 812.448 463 813 463H819C819.552 463 820 462.552 820 462C820 461.448 819.552 461 819 461Z" fill="#9C9FA2"/>
<path opacity="0.05" d="M415 390H275C270.582 390 267 393.582 267 398V468C267 472.418 270.582 476 275 476H415C419.418 476 423 472.418 423 468V398C423 393.582 419.418 390 415 390Z" fill="#0A0B0D"/>
<path d="M413 388H273C268.582 388 265 391.582 265 396V466C265 470.418 268.582 474 273 474H413C417.418 474 421 470.418 421 466V396C421 391.582 417.418 388 413 388Z" fill="white" stroke="#DADEE1"/>
<path d="M346 400H282C280.343 400 279 401.343 279 403C279 404.657 280.343 406 282 406H346C347.657 406 349 404.657 349 403C349 401.343 347.657 400 346 400Z" fill="#9C9FA2"/>
<path d="M399 401L403 405L407 401" stroke="#9C9FA2" stroke-width="1.4"/>
<path d="M279 461H409" stroke="#EEF0F2"/>
<path d="M294 433H285C283.895 433 283 433.895 283 435V459C283 460.105 283.895 461 285 461H294C295.105 461 296 460.105 296 459V435C296 433.895 295.105 433 294 433Z" fill="#2D9D5A"/>
<path d="M313 421H304C302.895 421 302 421.895 302 423V459C302 460.105 302.895 461 304 461H313C314.105 461 315 460.105 315 459V423C315 421.895 314.105 421 313 421Z" fill="#2D9D5A"/>
<path d="M332 443H323C321.895 443 321 443.895 321 445V459C321 460.105 321.895 461 323 461H332C333.105 461 334 460.105 334 459V445C334 443.895 333.105 443 332 443Z" fill="#D7352D"/>
<path d="M351 415H342C340.895 415 340 415.895 340 417V459C340 460.105 340.895 461 342 461H351C352.105 461 353 460.105 353 459V417C353 415.895 352.105 415 351 415Z" fill="#2D9D5A"/>
<path d="M370 437H361C359.895 437 359 437.895 359 439V459C359 460.105 359.895 461 361 461H370C371.105 461 372 460.105 372 459V439C372 437.895 371.105 437 370 437Z" fill="#9C9FA2"/>
</g>
<path d="M837 31H249V72H837V31Z" fill="white"/>
<path d="M249 72H837" stroke="#DADEE1"/>
<path d="M321 40H289C287.895 40 287 40.8954 287 42C287 43.1046 287.895 44 289 44H321C322.105 44 323 43.1046 323 42C323 40.8954 322.105 40 321 40Z" fill="#9C9FA2"/>
<path d="M290 61C292.209 61 294 59.2091 294 57C294 54.7909 292.209 53 290 53C287.791 53 286 54.7909 286 57C286 59.2091 287.791 61 290 61Z" fill="#2D9D5A"/>
<path d="M319 52H301C299.895 52 299 52.8954 299 54V59C299 60.1046 299.895 61 301 61H319C320.105 61 321 60.1046 321 59V54C321 52.8954 320.105 52 319 52Z" fill="#0A0B0D"/>
<path d="M411 40H381C379.895 40 379 40.8954 379 42C379 43.1046 379.895 44 381 44H411C412.105 44 413 43.1046 413 42C413 40.8954 412.105 40 411 40Z" fill="#9C9FA2"/>
<path d="M382 61C384.209 61 386 59.2091 386 57C386 54.7909 384.209 53 382 53C379.791 53 378 54.7909 378 57C378 59.2091 379.791 61 382 61Z" fill="#9C9FA2"/>
<path d="M409 52H393C391.895 52 391 52.8954 391 54V59C391 60.1046 391.895 61 393 61H409C410.105 61 411 60.1046 411 59V54C411 52.8954 410.105 52 409 52Z" fill="#0A0B0D"/>
<path d="M507 40H471C469.895 40 469 40.8954 469 42C469 43.1046 469.895 44 471 44H507C508.105 44 509 43.1046 509 42C509 40.8954 508.105 40 507 40Z" fill="#9C9FA2"/>
<path d="M472 61C474.209 61 476 59.2091 476 57C476 54.7909 474.209 53 472 53C469.791 53 468 54.7909 468 57C468 59.2091 469.791 61 472 61Z" fill="#D7352D"/>
<path d="M493 52H483C481.895 52 481 52.8954 481 54V59C481 60.1046 481.895 61 483 61H493C494.105 61 495 60.1046 495 59V54C495 52.8954 494.105 52 493 52Z" fill="#0A0B0D"/>
<path d="M704 42H694C691.239 42 689 44.2386 689 47V57C689 59.7614 691.239 62 694 62H704C706.761 62 709 59.7614 709 57V47C709 44.2386 706.761 42 704 42Z" stroke="#9C9FA2" stroke-width="1.4"/>
<path d="M734 42H724C721.239 42 719 44.2386 719 47V57C719 59.7614 721.239 62 724 62H734C736.761 62 739 59.7614 739 57V47C739 44.2386 736.761 42 734 42Z" stroke="#9C9FA2" stroke-width="1.4"/>
<path d="M764 42H754C751.239 42 749 44.2386 749 47V57C749 59.7614 751.239 62 754 62H764C766.761 62 769 59.7614 769 57V47C769 44.2386 766.761 42 764 42Z" stroke="#9C9FA2" stroke-width="1.4"/>
<path d="M705 48C707.209 48 709 46.2091 709 44C709 41.7909 707.209 40 705 40C702.791 40 701 41.7909 701 44C701 46.2091 702.791 48 705 48Z" fill="#D7352D"/>
<path d="M735 48C737.209 48 739 46.2091 739 44C739 41.7909 737.209 40 735 40C732.791 40 731 41.7909 731 44C731 46.2091 732.791 48 735 48Z" fill="#2D9D5A"/>
<path d="M765 48C767.209 48 769 46.2091 769 44C769 41.7909 767.209 40 765 40C762.791 40 761 41.7909 761 44C761 46.2091 762.791 48 765 48Z" fill="#E09A00"/>
<path d="M803 66C810.732 66 817 59.732 817 52C817 44.268 810.732 38 803 38C795.268 38 789 44.268 789 52C789 59.732 795.268 66 803 66Z" fill="#D9D9D9" stroke="white" stroke-width="2"/>
<rect x="1" y="1" width="838" height="487" rx="9" stroke="#0A0B0D" stroke-width="2"/>
</g>
</svg>
