<svg width="840" height="489" viewBox="0 0 840 489" fill="none" xmlns="http://www.w3.org/2000/svg">
<rect x="0" y="0" width="840" height="489" rx="15.1" fill="#F3F1EF"/>
<g transform="translate(67.2,39.12) scale(0.84)">
<rect x="1" y="1" width="838" height="487" rx="9" fill="#F3F1EF"/>
<rect x="1" y="1" width="838" height="487" rx="9" stroke="#0A0B0D" stroke-width="2"/>
<mask id="path-2-inside-1_74_4184" fill="white">
<path d="M0 10C0 4.47715 4.47715 0 10 0H830C835.523 0 840 4.47715 840 10V31H0V10Z"/>
</mask>
<path d="M0 0H840H0M840 33H0V29H840V33ZM840 29M0 31V0V31M0 31M840 0V31V0" fill="#0A0B0D" mask="url(#path-2-inside-1_74_4184)"/>
<circle cx="22" cy="15.5" r="5.4" stroke="#0A0B0D" stroke-width="1.2"/>
<circle cx="38" cy="15.5" r="5.4" stroke="#0A0B0D" stroke-width="1.2"/>
<circle cx="54" cy="15.5" r="5.4" stroke="#0A0B0D" stroke-width="1.2"/>
<rect x="77.6" y="8.6" width="692.8" height="13.8" rx="6.9" stroke="#0A0B0D" stroke-width="1.2"/>
<path d="M62 32V488H10L9.55371 487.989C7.32924 487.879 5.21808 486.947 3.63574 485.364C1.94792 483.676 1 481.387 1 479V32H62Z" fill="#EEEBE7" stroke="#0A0B0D" stroke-width="2"/>
<path d="M36 44H26C23.2386 44 21 46.2386 21 49V59C21 61.7614 23.2386 64 26 64H36C38.7614 64 41 61.7614 41 59V49C41 46.2386 38.7614 44 36 44Z" fill="#D7352D"/>
<path d="M32 50H30C28.8954 50 28 50.8954 28 52V56C28 57.1046 28.8954 58 30 58H32C33.1046 58 34 57.1046 34 56V52C34 50.8954 33.1046 50 32 50Z" fill="white"/>
<path d="M36 100H26C22.6863 100 20 102.686 20 106V116C20 119.314 22.6863 122 26 122H36C39.3137 122 42 119.314 42 116V106C42 102.686 39.3137 100 36 100Z" fill="#D7352D"/>
<path d="M33.5 107H28.5C27.6716 107 27 107.672 27 108.5C27 109.328 27.6716 110 28.5 110H33.5C34.3284 110 35 109.328 35 108.5C35 107.672 34.3284 107 33.5 107Z" fill="white"/>
<path d="M33.5 112H28.5C27.6716 112 27 112.672 27 113.5C27 114.328 27.6716 115 28.5 115H33.5C34.3284 115 35 114.328 35 113.5C35 112.672 34.3284 112 33.5 112Z" fill="white"/>
<path d="M36 136H26C22.6863 136 20 138.686 20 142V152C20 155.314 22.6863 158 26 158H36C39.3137 158 42 155.314 42 152V142C42 138.686 39.3137 136 36 136Z" stroke="#9C9FA2" stroke-width="1.4"/>
<path d="M36 172H26C22.6863 172 20 174.686 20 178V188C20 191.314 22.6863 194 26 194H36C39.3137 194 42 191.314 42 188V178C42 174.686 39.3137 172 36 172Z" stroke="#9C9FA2" stroke-width="1.4"/>
<path d="M36 208H26C22.6863 208 20 210.686 20 214V224C20 227.314 22.6863 230 26 230H36C39.3137 230 42 227.314 42 224V214C42 210.686 39.3137 208 36 208Z" stroke="#9C9FA2" stroke-width="1.4"/>
<path d="M36 244H26C22.6863 244 20 246.686 20 250V260C20 263.314 22.6863 266 26 266H36C39.3137 266 42 263.314 42 260V250C42 246.686 39.3137 244 36 244Z" stroke="#9C9FA2" stroke-width="1.4"/>
<path d="M31 150C32.6569 150 34 148.657 34 147C34 145.343 32.6569 144 31 144C29.3431 144 28 145.343 28 147C28 148.657 29.3431 150 31 150Z" fill="#9C9FA2"/>
<path d="M34.5 181H27.5C26.6716 181 26 181.672 26 182.5C26 183.328 26.6716 184 27.5 184H34.5C35.3284 184 36 183.328 36 182.5C36 181.672 35.3284 181 34.5 181Z" fill="#9C9FA2"/>
<path d="M31.5 186H27.5C26.6716 186 26 186.672 26 187.5C26 188.328 26.6716 189 27.5 189H31.5C32.3284 189 33 188.328 33 187.5C33 186.672 32.3284 186 31.5 186Z" fill="#9C9FA2"/>
<path d="M33.5 217H28.5C27.6716 217 27 217.672 27 218.5C27 219.328 27.6716 220 28.5 220H33.5C34.3284 220 35 219.328 35 218.5C35 217.672 34.3284 217 33.5 217Z" fill="#9C9FA2"/>
<path d="M33.5 222H28.5C27.6716 222 27 222.672 27 223.5C27 224.328 27.6716 225 28.5 225H33.5C34.3284 225 35 224.328 35 223.5C35 222.672 34.3284 222 33.5 222Z" fill="#9C9FA2"/>
<path d="M26.9996 257.4C28.3251 257.4 29.3996 256.325 29.3996 255C29.3996 253.674 28.3251 252.6 26.9996 252.6C25.6741 252.6 24.5996 253.674 24.5996 255C24.5996 256.325 25.6741 257.4 26.9996 257.4Z" fill="#9C9FA2"/>
<path d="M34.9996 257.4C36.3251 257.4 37.3996 256.325 37.3996 255C37.3996 253.674 36.3251 252.6 34.9996 252.6C33.6741 252.6 32.5996 253.674 32.5996 255C32.5996 256.325 33.6741 257.4 34.9996 257.4Z" fill="#9C9FA2"/>
<path d="M31 465C37.0751 465 42 460.075 42 454C42 447.925 37.0751 443 31 443C24.9249 443 20 447.925 20 454C20 460.075 24.9249 465 31 465Z" fill="#D9D9D9"/>
<path d="M99 48H85C81.6863 48 79 50.6863 79 54V68C79 71.3137 81.6863 74 85 74H99C102.314 74 105 71.3137 105 68V54C105 50.6863 102.314 48 99 48Z" fill="#D9D9D9"/>
<path d="M259 50H117C114.791 50 113 51.7909 113 54V55C113 57.2091 114.791 59 117 59H259C261.209 59 263 57.2091 263 55V54C263 51.7909 261.209 50 259 50Z" fill="#0A0B0D"/>
<path d="M220 64H116C114.343 64 113 65.3431 113 67C113 68.6569 114.343 70 116 70H220C221.657 70 223 68.6569 223 67C223 65.3431 221.657 64 220 64Z" fill="#9C9FA2"/>
<path d="M340 52H284C279.029 52 275 56.0294 275 61C275 65.9706 279.029 70 284 70H340C344.971 70 349 65.9706 349 61C349 56.0294 344.971 52 340 52Z" fill="#FFF8EC" stroke="#E09A00"/>
<path d="M333 58H291C289.343 58 288 59.3431 288 61C288 62.6569 289.343 64 291 64H333C334.657 64 336 62.6569 336 61C336 59.3431 334.657 58 333 58Z" fill="#E09A00"/>
<path d="M713 48H641C637.686 48 635 50.6863 635 54V70C635 73.3137 637.686 76 641 76H713C716.314 76 719 73.3137 719 70V54C719 50.6863 716.314 48 713 48Z" fill="white" stroke="#0A0B0D" stroke-width="1.5"/>
<path d="M694 59H660C658.343 59 657 60.3431 657 62C657 63.6569 658.343 65 660 65H694C695.657 65 697 63.6569 697 62C697 60.3431 695.657 59 694 59Z" fill="#0A0B0D"/>
<path d="M805 48H733C729.686 48 727 50.6863 727 54V70C727 73.3137 729.686 76 733 76H805C808.314 76 811 73.3137 811 70V54C811 50.6863 808.314 48 805 48Z" fill="#D7352D"/>
<path d="M784 59H754C752.343 59 751 60.3431 751 62C751 63.6569 752.343 65 754 65H784C785.657 65 787 63.6569 787 62C787 60.3431 785.657 59 784 59Z" fill="white"/>
<path d="M79 86H823" stroke="#ECECEA"/>
<path d="M491 94H87C82.5817 94 79 97.5817 79 102V204C79 208.418 82.5817 212 87 212H491C495.418 212 499 208.418 499 204V102C499 97.5817 495.418 94 491 94Z" stroke="#777878"/>
<path d="M182 106H96C94.3431 106 93 107.343 93 109C93 110.657 94.3431 112 96 112H182C183.657 112 185 110.657 185 109C185 107.343 183.657 106 182 106Z" fill="#9C9FA2"/>
<path d="M482 106H452C450.343 106 449 107.343 449 109C449 110.657 450.343 112 452 112H482C483.657 112 485 110.657 485 109C485 107.343 483.657 106 482 106Z" fill="#DADEE1"/>
<path d="M205 126H99C95.6863 126 93 128.686 93 132V188C93 191.314 95.6863 194 99 194H205C208.314 194 211 191.314 211 188V132C211 128.686 208.314 126 205 126Z" fill="#F3F1EF" stroke="#DADEE1"/>
<path d="M152.5 138H107.5C106.119 138 105 139.119 105 140.5C105 141.881 106.119 143 107.5 143H152.5C153.881 143 155 141.881 155 140.5C155 139.119 153.881 138 152.5 138Z" fill="#9C9FA2"/>
<path d="M166 152H108C106.343 152 105 153.343 105 155V160C105 161.657 106.343 163 108 163H166C167.657 163 169 161.657 169 160V155C169 153.343 167.657 152 166 152Z" fill="#0A0B0D"/>
<path d="M141.5 172H108.5C106.567 172 105 173.567 105 175.5C105 177.433 106.567 179 108.5 179H141.5C143.433 179 145 177.433 145 175.5C145 173.567 143.433 172 141.5 172Z" fill="#EFF9F3"/>
<path d="M129.5 174H110.5C109.672 174 109 174.672 109 175.5C109 176.328 109.672 177 110.5 177H129.5C130.328 177 131 176.328 131 175.5C131 174.672 130.328 174 129.5 174Z" fill="#2D9D5A"/>
<path d="M331 126H225C221.686 126 219 128.686 219 132V188C219 191.314 221.686 194 225 194H331C334.314 194 337 191.314 337 188V132C337 128.686 334.314 126 331 126Z" fill="#F3F1EF" stroke="#DADEE1"/>
<path d="M272.5 138H233.5C232.119 138 231 139.119 231 140.5C231 141.881 232.119 143 233.5 143H272.5C273.881 143 275 141.881 275 140.5C275 139.119 273.881 138 272.5 138Z" fill="#9C9FA2"/>
<path d="M286 152H234C232.343 152 231 153.343 231 155V160C231 161.657 232.343 163 234 163H286C287.657 163 289 161.657 289 160V155C289 153.343 287.657 152 286 152Z" fill="#0A0B0D"/>
<path d="M267.5 172H234.5C232.567 172 231 173.567 231 175.5C231 177.433 232.567 179 234.5 179H267.5C269.433 179 271 177.433 271 175.5C271 173.567 269.433 172 267.5 172Z" fill="#FFF8EC"/>
<path d="M259.5 174H236.5C235.672 174 235 174.672 235 175.5C235 176.328 235.672 177 236.5 177H259.5C260.328 177 261 176.328 261 175.5C261 174.672 260.328 174 259.5 174Z" fill="#E09A00"/>
<path d="M457 126H351C347.686 126 345 128.686 345 132V188C345 191.314 347.686 194 351 194H457C460.314 194 463 191.314 463 188V132C463 128.686 460.314 126 457 126Z" fill="#F3F1EF" stroke="#DADEE1"/>
<path d="M406.5 138H359.5C358.119 138 357 139.119 357 140.5C357 141.881 358.119 143 359.5 143H406.5C407.881 143 409 141.881 409 140.5C409 139.119 407.881 138 406.5 138Z" fill="#9C9FA2"/>
<path d="M404 152H360C358.343 152 357 153.343 357 155V160C357 161.657 358.343 163 360 163H404C405.657 163 407 161.657 407 160V155C407 153.343 405.657 152 404 152Z" fill="#0A0B0D"/>
<path d="M393.5 172H360.5C358.567 172 357 173.567 357 175.5C357 177.433 358.567 179 360.5 179H393.5C395.433 179 397 177.433 397 175.5C397 173.567 395.433 172 393.5 172Z" fill="#FFF0F0"/>
<path d="M377.5 174H362.5C361.672 174 361 174.672 361 175.5C361 176.328 361.672 177 362.5 177H377.5C378.328 177 379 176.328 379 175.5C379 174.672 378.328 174 377.5 174Z" fill="#D7352D"/>
<path d="M491 222H87C82.5817 222 79 225.582 79 230V459C79 463.418 82.5817 467 87 467H491C495.418 467 499 463.418 499 459V230C499 225.582 495.418 222 491 222Z" stroke="#777878"/>
<path d="M200 236H96C94.3431 236 93 237.343 93 239C93 240.657 94.3431 242 96 242H200C201.657 242 203 240.657 203 239C203 237.343 201.657 236 200 236Z" fill="#9C9FA2"/>
<path d="M389 241C390.657 241 392 239.657 392 238C392 236.343 390.657 235 389 235C387.343 235 386 236.343 386 238C386 239.657 387.343 241 389 241Z" fill="#D7352D"/>
<path d="M424.5 235H399.5C398.119 235 397 236.119 397 237.5C397 238.881 398.119 240 399.5 240H424.5C425.881 240 427 238.881 427 237.5C427 236.119 425.881 235 424.5 235Z" fill="#9C9FA2"/>
<path d="M439 241C440.657 241 442 239.657 442 238C442 236.343 440.657 235 439 235C437.343 235 436 236.343 436 238C436 239.657 437.343 241 439 241Z" fill="#9C9FA2"/>
<path d="M472.5 235H449.5C448.119 235 447 236.119 447 237.5C447 238.881 448.119 240 449.5 240H472.5C473.881 240 475 238.881 475 237.5C475 236.119 473.881 235 472.5 235Z" fill="#9C9FA2"/>
<path d="M109 290H473" stroke="#EEF0F2"/>
<path d="M109 330H473" stroke="#EEF0F2"/>
<path d="M109 370H473" stroke="#EEF0F2"/>
<path d="M109 410H473" stroke="#EEF0F2"/>
<path d="M109 266V440" stroke="#DADEE1"/>
<path d="M109 440H473" stroke="#DADEE1"/>
<path d="M102 288H97C95.8954 288 95 288.895 95 290C95 291.105 95.8954 292 97 292H102C103.105 292 104 291.105 104 290C104 288.895 103.105 288 102 288Z" fill="#CFD3D6"/>
<path d="M102 328H97C95.8954 328 95 328.895 95 330C95 331.105 95.8954 332 97 332H102C103.105 332 104 331.105 104 330C104 328.895 103.105 328 102 328Z" fill="#CFD3D6"/>
<path d="M102 368H97C95.8954 368 95 368.895 95 370C95 371.105 95.8954 372 97 372H102C103.105 372 104 371.105 104 370C104 368.895 103.105 368 102 368Z" fill="#CFD3D6"/>
<path d="M102 408H97C95.8954 408 95 408.895 95 410C95 411.105 95.8954 412 97 412H102C103.105 412 104 411.105 104 410C104 408.895 103.105 408 102 408Z" fill="#CFD3D6"/>
<path d="M163 446H151C149.895 446 149 446.895 149 448C149 449.105 149.895 450 151 450H163C164.105 450 165 449.105 165 448C165 446.895 164.105 446 163 446Z" fill="#CFD3D6"/>
<path d="M243 446H231C229.895 446 229 446.895 229 448C229 449.105 229.895 450 231 450H243C244.105 450 245 449.105 245 448C245 446.895 244.105 446 243 446Z" fill="#CFD3D6"/>
<path d="M323 446H311C309.895 446 309 446.895 309 448C309 449.105 309.895 450 311 450H323C324.105 450 325 449.105 325 448C325 446.895 324.105 446 323 446Z" fill="#CFD3D6"/>
<path d="M403 446H391C389.895 446 389 446.895 389 448C389 449.105 389.895 450 391 450H403C404.105 450 405 449.105 405 448C405 446.895 404.105 446 403 446Z" fill="#CFD3D6"/>
<path d="M119 326L167 338L215 330L263 350L311 344L359 366L407 358L465 372" stroke="#9C9FA2" stroke-width="1.3" stroke-dasharray="4 4"/>
<path d="M119 300L167 330L215 318L263 360L311 348L359 392L407 378L465 410V440H119V300Z" fill="#D7352D" fill-opacity="0.07"/>
<path d="M119 300L167 330L215 318L263 360L311 348L359 392L407 378L465 410" stroke="#D7352D" stroke-width="2" stroke-linecap="round" stroke-linejoin="round"/>
<path d="M263 365C265.761 365 268 362.761 268 360C268 357.239 265.761 355 263 355C260.239 355 258 357.239 258 360C258 362.761 260.239 365 263 365Z" fill="#FFF8EC" stroke="#E09A00" stroke-width="1.5"/>
<path d="M263 362C264.105 362 265 361.105 265 360C265 358.895 264.105 358 263 358C261.895 358 261 358.895 261 360C261 361.105 261.895 362 263 362Z" fill="#E09A00"/>
<path d="M359 397C361.761 397 364 394.761 364 392C364 389.239 361.761 387 359 387C356.239 387 354 389.239 354 392C354 394.761 356.239 397 359 397Z" fill="#FFF0F0" stroke="#D7352D" stroke-width="1.5"/>
<path d="M359 394C360.105 394 361 393.105 361 392C361 390.895 360.105 390 359 390C357.895 390 357 390.895 357 392C357 393.105 357.895 394 359 394Z" fill="#D7352D"/>
<path d="M815 94H519C514.582 94 511 97.5817 511 102V276C511 280.418 514.582 284 519 284H815C819.418 284 823 280.418 823 276V102C823 97.5817 819.418 94 815 94Z" stroke="#777878"/>
<path d="M606 108H528C526.343 108 525 109.343 525 111C525 112.657 526.343 114 528 114H606C607.657 114 609 112.657 609 111C609 109.343 607.657 108 606 108Z" fill="#9C9FA2"/>
<path d="M716 108H652C650.343 108 649 109.343 649 111C649 112.657 650.343 114 652 114H716C717.657 114 719 112.657 719 111C719 109.343 717.657 108 716 108Z" fill="#9C9FA2"/>
<path d="M577 200C595.778 200 611 184.778 611 166C611 147.222 595.778 132 577 132C558.222 132 543 147.222 543 166C543 184.778 558.222 200 577 200Z" stroke="#E8E5E2" stroke-width="9"/>
<path d="M577 132C582.816 132.001 588.535 133.494 593.61 136.336C598.685 139.178 602.945 143.275 605.985 148.234C609.024 153.193 610.74 158.849 610.969 164.661C611.198 170.473 609.932 176.246 607.293 181.429C604.653 186.612 600.728 191.031 595.893 194.264C591.058 197.497 585.474 199.436 579.676 199.894C573.878 200.353 568.059 199.316 562.776 196.884C557.492 194.451 552.921 190.704 549.5 186" stroke="#E09A00" stroke-width="9" stroke-linecap="round"/>
<path d="M590 160H564C562.343 160 561 161.343 561 163V169C561 170.657 562.343 172 564 172H590C591.657 172 593 170.657 593 169V163C593 161.343 591.657 160 590 160Z" fill="#0A0B0D"/>
<path d="M586.5 178H567.5C566.119 178 565 179.119 565 180.5C565 181.881 566.119 183 567.5 183H586.5C587.881 183 589 181.881 589 180.5C589 179.119 587.881 178 586.5 178Z" fill="#9C9FA2"/>
<path d="M805.5 124H652.5C650.567 124 649 125.567 649 127.5C649 129.433 650.567 131 652.5 131H805.5C807.433 131 809 129.433 809 127.5C809 125.567 807.433 124 805.5 124Z" fill="#E8E5E2"/>
<path d="M757.5 124H652.5C650.567 124 649 125.567 649 127.5C649 129.433 650.567 131 652.5 131H757.5C759.433 131 761 129.433 761 127.5C761 125.567 759.433 124 757.5 124Z" fill="#D7352D"/>
<path d="M805.5 146H652.5C650.567 146 649 147.567 649 149.5C649 151.433 650.567 153 652.5 153H805.5C807.433 153 809 151.433 809 149.5C809 147.567 807.433 146 805.5 146Z" fill="#E8E5E2"/>
<path d="M727.5 146H652.5C650.567 146 649 147.567 649 149.5C649 151.433 650.567 153 652.5 153H727.5C729.433 153 731 151.433 731 149.5C731 147.567 729.433 146 727.5 146Z" fill="#0A0B0D"/>
<path d="M805.5 168H652.5C650.567 168 649 169.567 649 171.5C649 173.433 650.567 175 652.5 175H805.5C807.433 175 809 173.433 809 171.5C809 169.567 807.433 168 805.5 168Z" fill="#E8E5E2"/>
<path d="M743.5 168H652.5C650.567 168 649 169.567 649 171.5C649 173.433 650.567 175 652.5 175H743.5C745.433 175 747 173.433 747 171.5C747 169.567 745.433 168 743.5 168Z" fill="#E09A00"/>
<path d="M805.5 190H652.5C650.567 190 649 191.567 649 193.5C649 195.433 650.567 197 652.5 197H805.5C807.433 197 809 195.433 809 193.5C809 191.567 807.433 190 805.5 190Z" fill="#E8E5E2"/>
<path d="M701.5 190H652.5C650.567 190 649 191.567 649 193.5C649 195.433 650.567 197 652.5 197H701.5C703.433 197 705 195.433 705 193.5C705 191.567 703.433 190 701.5 190Z" fill="#9C9FA2"/>
<path d="M525 222H809" stroke="#EEF0F2"/>
<path d="M642 236H528C526.343 236 525 237.343 525 239C525 240.657 526.343 242 528 242H642C643.657 242 645 240.657 645 239C645 237.343 643.657 236 642 236Z" fill="#9C9FA2"/>
<path d="M801 232H731C726.582 232 723 235.582 723 240C723 244.418 726.582 248 731 248H801C805.418 248 809 244.418 809 240C809 235.582 805.418 232 801 232Z" fill="#FFF8EC" stroke="#E09A00"/>
<path d="M794.5 238H737.5C736.119 238 735 239.119 735 240.5C735 241.881 736.119 243 737.5 243H794.5C795.881 243 797 241.881 797 240.5C797 239.119 795.881 238 794.5 238Z" fill="#E09A00"/>
<path d="M815 292H519C514.582 292 511 295.582 511 300V459C511 463.418 514.582 467 519 467H815C819.418 467 823 463.418 823 459V300C823 295.582 819.418 292 815 292Z" stroke="#777878"/>
<path d="M537 306H529C526.791 306 525 307.791 525 310V318C525 320.209 526.791 322 529 322H537C539.209 322 541 320.209 541 318V310C541 307.791 539.209 306 537 306Z" fill="#D7352D"/>
<path d="M535.8 311H530.2C529.537 311 529 311.537 529 312.2C529 312.863 529.537 313.4 530.2 313.4H535.8C536.463 313.4 537 312.863 537 312.2C537 311.537 536.463 311 535.8 311Z" fill="white"/>
<path d="M533.8 316H530.2C529.537 316 529 316.537 529 317.2C529 317.863 529.537 318.4 530.2 318.4H533.8C534.463 318.4 535 317.863 535 317.2C535 316.537 534.463 316 533.8 316Z" fill="white"/>
<path d="M626 310H552C550.343 310 549 311.343 549 313C549 314.657 550.343 316 552 316H626C627.657 316 629 314.657 629 313C629 311.343 627.657 310 626 310Z" fill="#0A0B0D"/>
<path d="M792.5 334H527.5C526.119 334 525 335.119 525 336.5C525 337.881 526.119 339 527.5 339H792.5C793.881 339 795 337.881 795 336.5C795 335.119 793.881 334 792.5 334Z" fill="#9C9FA2"/>
<path d="M774.5 346H527.5C526.119 346 525 347.119 525 348.5C525 349.881 526.119 351 527.5 351H774.5C775.881 351 777 349.881 777 348.5C777 347.119 775.881 346 774.5 346Z" fill="#9C9FA2"/>
<path d="M784.5 358H527.5C526.119 358 525 359.119 525 360.5C525 361.881 526.119 363 527.5 363H784.5C785.881 363 787 361.881 787 360.5C787 359.119 785.881 358 784.5 358Z" fill="#9C9FA2"/>
<path d="M702.5 370H527.5C526.119 370 525 371.119 525 372.5C525 373.881 526.119 375 527.5 375H702.5C703.881 375 705 373.881 705 372.5C705 371.119 703.881 370 702.5 370Z" fill="#9C9FA2"/>
<path d="M525 392H809" stroke="#EEF0F2"/>
<path d="M654 406H531C527.686 406 525 408.686 525 412V434C525 437.314 527.686 440 531 440H654C657.314 440 660 437.314 660 434V412C660 408.686 657.314 406 654 406Z" fill="white" stroke="#0A0B0D" stroke-width="1.5"/>
<path d="M594 420H560C558.343 420 557 421.343 557 423C557 424.657 558.343 426 560 426H594C595.657 426 597 424.657 597 423C597 421.343 595.657 420 594 420Z" fill="#0A0B0D"/>
<path d="M803 406H680C676.686 406 674 408.686 674 412V434C674 437.314 676.686 440 680 440H803C806.314 440 809 437.314 809 434V412C809 408.686 806.314 406 803 406Z" fill="#D7352D"/>
<path d="M746 420H712C710.343 420 709 421.343 709 423C709 424.657 710.343 426 712 426H746C747.657 426 749 424.657 749 423C749 421.343 747.657 420 746 420Z" fill="white"/>
</g>
</svg>
