<svg width="840" height="491" viewBox="0 0 840 491" fill="none" xmlns="http://www.w3.org/2000/svg">
<rect x="0" y="0" width="840" height="491" rx="15.1" fill="#F3F1EF"/>
<g transform="translate(67.2,39.28) scale(0.84)">
<g clip-path="url(#clip0_74_2974)">
<path d="M829 1H11C5.47715 1 1 5.47715 1 11V480C1 485.523 5.47715 490 11 490H829C834.523 490 839 485.523 839 480V11C839 5.47715 834.523 1 829 1Z" fill="#F3F1EF"/>
<mask id="mask0_74_2974" style="mask-type:luminance" maskUnits="userSpaceOnUse" x="2" y="2" width="836" height="487">
<path d="M829 2H11C6.02944 2 2 6.02944 2 11V480C2 484.971 6.02944 489 11 489H829C833.971 489 838 484.971 838 480V11C838 6.02944 833.971 2 829 2Z" fill="white"/>
</mask>
<g mask="url(#mask0_74_2974)">
<path d="M1 31H150V489H11C8.34784 489 5.8043 487.946 3.92893 486.071C2.05357 484.196 1 481.652 1 479V31Z" fill="#EEEBE7"/>
<path d="M28 44H20C17.7909 44 16 45.7909 16 48V56C16 58.2091 17.7909 60 20 60H28C30.2091 60 32 58.2091 32 56V48C32 45.7909 30.2091 44 28 44Z" fill="#D7352D"/>
<path d="M102 48H44C41.7909 48 40 49.7909 40 52C40 54.2091 41.7909 56 44 56H102C104.209 56 106 54.2091 106 52C106 49.7909 104.209 48 102 48Z" fill="#0A0B0D"/>
<path d="M128 74H22C17.5817 74 14 77.5817 14 82V106C14 110.418 17.5817 114 22 114H128C132.418 114 136 110.418 136 106V82C136 77.5817 132.418 74 128 74Z" fill="white" stroke="#DADEE1"/>
<path d="M32 103C36.9706 103 41 98.9706 41 94C41 89.0294 36.9706 85 32 85C27.0294 85 23 89.0294 23 94C23 98.9706 27.0294 103 32 103Z" fill="#F3F1EF" stroke="#DADEE1"/>
<path d="M32 95C33.6569 95 35 93.6569 35 92C35 90.3431 33.6569 89 32 89C30.3431 89 29 90.3431 29 92C29 93.6569 30.3431 95 32 95Z" fill="#9C9FA2"/>
<path d="M115 86H51C49.3431 86 48 87.3431 48 89C48 90.6569 49.3431 92 51 92H115C116.657 92 118 90.6569 118 89C118 87.3431 116.657 86 115 86Z" fill="#0A0B0D"/>
<path d="M99.5 98H50.5C49.1193 98 48 99.1193 48 100.5C48 101.881 49.1193 103 50.5 103H99.5C100.881 103 102 101.881 102 100.5C102 99.1193 100.881 98 99.5 98Z" fill="#9C9FA2"/>
<path d="M16 126H134" stroke="#DADEE1"/>
<path d="M25 145H19C17.3431 145 16 146.343 16 148V154C16 155.657 17.3431 157 19 157H25C26.6569 157 28 155.657 28 154V148C28 146.343 26.6569 145 25 145Z" stroke="#9C9FA2" stroke-width="1.3"/>
<path d="M22 153C23.1046 153 24 152.105 24 151C24 149.895 23.1046 149 22 149C20.8954 149 20 149.895 20 151C20 152.105 20.8954 153 22 153Z" fill="#9C9FA2"/>
<path d="M113 147H39C37.3431 147 36 148.343 36 150V151C36 152.657 37.3431 154 39 154H113C114.657 154 116 152.657 116 151V150C116 148.343 114.657 147 113 147Z" fill="#9C9FA2"/>
<path d="M146 166H12C8.68629 166 6 168.686 6 172V186C6 189.314 8.68629 192 12 192H146C149.314 192 152 189.314 152 186V172C152 168.686 149.314 166 146 166Z" fill="white"/>
<path d="M9 167.5C9 166.672 8.32843 166 7.5 166C6.67157 166 6 166.672 6 167.5V190.5C6 191.328 6.67157 192 7.5 192C8.32843 192 9 191.328 9 190.5V167.5Z" fill="#D7352D"/>
<path d="M25 173H19C17.3431 173 16 174.343 16 176V182C16 183.657 17.3431 185 19 185H25C26.6569 185 28 183.657 28 182V176C28 174.343 26.6569 173 25 173Z" fill="#D7352D"/>
<path d="M22 181C23.1046 181 24 180.105 24 179C24 177.895 23.1046 177 22 177C20.8954 177 20 177.895 20 179C20 180.105 20.8954 181 22 181Z" fill="white"/>
<path d="M109 175H39C37.3431 175 36 176.343 36 178V179C36 180.657 37.3431 182 39 182H109C110.657 182 112 180.657 112 179V178C112 176.343 110.657 175 109 175Z" fill="#0A0B0D"/>
<path d="M25 201H19C17.3431 201 16 202.343 16 204V210C16 211.657 17.3431 213 19 213H25C26.6569 213 28 211.657 28 210V204C28 202.343 26.6569 201 25 201Z" stroke="#9C9FA2" stroke-width="1.3"/>
<path d="M22 209C23.1046 209 24 208.105 24 207C24 205.895 23.1046 205 22 205C20.8954 205 20 205.895 20 207C20 208.105 20.8954 209 22 209Z" fill="#9C9FA2"/>
<path d="M97 203H39C37.3431 203 36 204.343 36 206V207C36 208.657 37.3431 210 39 210H97C98.6569 210 100 208.657 100 207V206C100 204.343 98.6569 203 97 203Z" fill="#9C9FA2"/>
<path d="M25 229H19C17.3431 229 16 230.343 16 232V238C16 239.657 17.3431 241 19 241H25C26.6569 241 28 239.657 28 238V232C28 230.343 26.6569 229 25 229Z" stroke="#9C9FA2" stroke-width="1.3"/>
<path d="M22 237C23.1046 237 24 236.105 24 235C24 233.895 23.1046 233 22 233C20.8954 233 20 233.895 20 235C20 236.105 20.8954 237 22 237Z" fill="#9C9FA2"/>
<path d="M105 231H39C37.3431 231 36 232.343 36 234V235C36 236.657 37.3431 238 39 238H105C106.657 238 108 236.657 108 235V234C108 232.343 106.657 231 105 231Z" fill="#9C9FA2"/>
<path d="M25 257H19C17.3431 257 16 258.343 16 260V266C16 267.657 17.3431 269 19 269H25C26.6569 269 28 267.657 28 266V260C28 258.343 26.6569 257 25 257Z" stroke="#9C9FA2" stroke-width="1.3"/>
<path d="M22 265C23.1046 265 24 264.105 24 263C24 261.895 23.1046 261 22 261C20.8954 261 20 261.895 20 263C20 264.105 20.8954 265 22 265Z" fill="#9C9FA2"/>
<path d="M91 259H39C37.3431 259 36 260.343 36 262V263C36 264.657 37.3431 266 39 266H91C92.6569 266 94 264.657 94 263V262C94 260.343 92.6569 259 91 259Z" fill="#9C9FA2"/>
<path d="M150 31V489" stroke="#0A0B0D" stroke-width="2"/>
<path d="M1 31H839" stroke="#0A0B0D" stroke-width="2"/>
<path d="M166 53L161 57L166 61" stroke="#9C9FA2" stroke-width="1.6"/>
<path d="M296 48H184C181.791 48 180 49.7909 180 52V53C180 55.2091 181.791 57 184 57H296C298.209 57 300 55.2091 300 53V52C300 49.7909 298.209 48 296 48Z" fill="#0A0B0D"/>
<path d="M314 61C316.209 61 318 59.2091 318 57C318 54.7909 316.209 53 314 53C311.791 53 310 54.7909 310 57C310 59.2091 311.791 61 314 61Z" fill="#E09A00"/>
<path d="M377 54H327C325.343 54 324 55.3431 324 57C324 58.6569 325.343 60 327 60H377C378.657 60 380 58.6569 380 57C380 55.3431 378.657 54 377 54Z" fill="#9C9FA2"/>
<path d="M691 50H547C545.343 50 544 51.3431 544 53V54C544 55.6569 545.343 57 547 57H691C692.657 57 694 55.6569 694 54V53C694 51.3431 692.657 50 691 50Z" fill="#0A0B0D"/>
<path d="M283 92H169C167.343 92 166 93.3431 166 95V96C166 97.6569 167.343 99 169 99H283C284.657 99 286 97.6569 286 96V95C286 93.3431 284.657 92 283 92Z" fill="#0A0B0D"/>
<path d="M284.5 106H167.5C166.672 106 166 106.672 166 107.5C166 108.328 166.672 109 167.5 109H284.5C285.328 109 286 108.328 286 107.5C286 106.672 285.328 106 284.5 106Z" fill="#D7352D"/>
<path d="M423 92H309C307.343 92 306 93.3431 306 95V96C306 97.6569 307.343 99 309 99H423C424.657 99 426 97.6569 426 96V95C426 93.3431 424.657 92 423 92Z" fill="#9C9FA2"/>
<path d="M166 109H824" stroke="#EEF0F2"/>
<path d="M514 118H174C169.582 118 166 121.582 166 126V459C166 463.418 169.582 467 174 467H514C518.418 467 522 463.418 522 459V126C522 121.582 518.418 118 514 118Z" fill="white" stroke="#DADEE1"/>
<path d="M361 130H303C301.343 130 300 131.343 300 133V135C300 136.657 301.343 138 303 138H361C362.657 138 364 136.657 364 135V133C364 131.343 362.657 130 361 130Z" fill="#0A0B0D"/>
<path d="M393 131H371C369.343 131 368 132.343 368 134V135C368 136.657 369.343 138 371 138H393C394.657 138 396 136.657 396 135V134C396 132.343 394.657 131 393 131Z" fill="#9C9FA2"/>
<path d="M204 175.2H190C188.895 175.2 188 176.095 188 177.2C188 178.305 188.895 179.2 190 179.2H204C205.105 179.2 206 178.305 206 177.2C206 176.095 205.105 175.2 204 175.2Z" fill="#CFD3D6"/>
<path d="M250.9 175.2H236.9C235.796 175.2 234.9 176.095 234.9 177.2C234.9 178.305 235.796 179.2 236.9 179.2H250.9C252.005 179.2 252.9 178.305 252.9 177.2C252.9 176.095 252.005 175.2 250.9 175.2Z" fill="#CFD3D6"/>
<path d="M297.7 175.2H283.7C282.596 175.2 281.7 176.095 281.7 177.2C281.7 178.305 282.596 179.2 283.7 179.2H297.7C298.805 179.2 299.7 178.305 299.7 177.2C299.7 176.095 298.805 175.2 297.7 175.2Z" fill="#CFD3D6"/>
<path d="M344.6 175.2H330.6C329.495 175.2 328.6 176.095 328.6 177.2C328.6 178.305 329.495 179.2 330.6 179.2H344.6C345.704 179.2 346.6 178.305 346.6 177.2C346.6 176.095 345.704 175.2 344.6 175.2Z" fill="#CFD3D6"/>
<path d="M391.4 175.2H377.4C376.296 175.2 375.4 176.095 375.4 177.2C375.4 178.305 376.296 179.2 377.4 179.2H391.4C392.505 179.2 393.4 178.305 393.4 177.2C393.4 176.095 392.505 175.2 391.4 175.2Z" fill="#CFD3D6"/>
<path d="M438.3 175.2H424.3C423.195 175.2 422.3 176.095 422.3 177.2C422.3 178.305 423.195 179.2 424.3 179.2H438.3C439.404 179.2 440.3 178.305 440.3 177.2C440.3 176.095 439.404 175.2 438.3 175.2Z" fill="#CFD3D6"/>
<path d="M485.1 175.2H471.1C469.995 175.2 469.1 176.095 469.1 177.2C469.1 178.305 469.995 179.2 471.1 179.2H485.1C486.204 179.2 487.1 178.305 487.1 177.2C487.1 176.095 486.204 175.2 485.1 175.2Z" fill="#CFD3D6"/>
<path d="M226.9 198.4H180V240.8H226.9V198.4Z" stroke="#EEF0F2"/>
<path d="M190 204.4H188C186.895 204.4 186 205.295 186 206.4C186 207.505 186.895 208.4 188 208.4H190C191.105 208.4 192 207.505 192 206.4C192 205.295 191.105 204.4 190 204.4Z" fill="#D7352D"/>
<path d="M273.8 198.4H226.9V240.8H273.8V198.4Z" stroke="#EEF0F2"/>
<path d="M236.9 204.4H234.9C233.796 204.4 232.9 205.295 232.9 206.4C232.9 207.505 233.796 208.4 234.9 208.4H236.9C238.005 208.4 238.9 207.505 238.9 206.4C238.9 205.295 238.005 204.4 236.9 204.4Z" fill="#0A0B0D"/>
<path d="M320.6 198.4H273.7V240.8H320.6V198.4Z" stroke="#EEF0F2"/>
<path d="M286.7 204.4H281.7C280.596 204.4 279.7 205.295 279.7 206.4C279.7 207.505 280.596 208.4 281.7 208.4H286.7C287.805 208.4 288.7 207.505 288.7 206.4C288.7 205.295 287.805 204.4 286.7 204.4Z" fill="#0A0B0D"/>
<path d="M367.5 198.4H320.6V240.8H367.5V198.4Z" stroke="#EEF0F2"/>
<path d="M330.6 204.4H328.6C327.495 204.4 326.6 205.295 326.6 206.4C326.6 207.505 327.495 208.4 328.6 208.4H330.6C331.704 208.4 332.6 207.505 332.6 206.4C332.6 205.295 331.704 204.4 330.6 204.4Z" fill="#0A0B0D"/>
<path d="M414.3 198.4H367.4V240.8H414.3V198.4Z" stroke="#EEF0F2"/>
<path d="M380.4 204.4H375.4C374.296 204.4 373.4 205.295 373.4 206.4C373.4 207.505 374.296 208.4 375.4 208.4H380.4C381.505 208.4 382.4 207.505 382.4 206.4C382.4 205.295 381.505 204.4 380.4 204.4Z" fill="#0A0B0D"/>
<path d="M461.2 198.4H414.3V240.8H461.2V198.4Z" stroke="#EEF0F2"/>
<path d="M424.3 204.4H422.3C421.195 204.4 420.3 205.295 420.3 206.4C420.3 207.505 421.195 208.4 422.3 208.4H424.3C425.404 208.4 426.3 207.505 426.3 206.4C426.3 205.295 425.404 204.4 424.3 204.4Z" fill="#0A0B0D"/>
<path d="M508 198.4H461.1V240.8H508V198.4Z" stroke="#EEF0F2"/>
<path d="M471.1 204.4H469.1C467.995 204.4 467.1 205.295 467.1 206.4C467.1 207.505 467.995 208.4 469.1 208.4H471.1C472.204 208.4 473.1 207.505 473.1 206.4C473.1 205.295 472.204 204.4 471.1 204.4Z" fill="#0A0B0D"/>
<path d="M226.9 240.9H180V283.3H226.9V240.9Z" stroke="#EEF0F2"/>
<path d="M193 246.9H188C186.895 246.9 186 247.795 186 248.9C186 250.005 186.895 250.9 188 250.9H193C194.105 250.9 195 250.005 195 248.9C195 247.795 194.105 246.9 193 246.9Z" fill="#0A0B0D"/>
<path d="M273.8 240.9H226.9V283.3H273.8V240.9Z" stroke="#EEF0F2"/>
<path d="M236.9 246.9H234.9C233.796 246.9 232.9 247.795 232.9 248.9C232.9 250.005 233.796 250.9 234.9 250.9H236.9C238.005 250.9 238.9 250.005 238.9 248.9C238.9 247.795 238.005 246.9 236.9 246.9Z" fill="#0A0B0D"/>
<path d="M320.6 240.9H273.7V283.3H320.6V240.9Z" stroke="#EEF0F2"/>
<path d="M286.7 246.9H281.7C280.596 246.9 279.7 247.795 279.7 248.9C279.7 250.005 280.596 250.9 281.7 250.9H286.7C287.805 250.9 288.7 250.005 288.7 248.9C288.7 247.795 287.805 246.9 286.7 246.9Z" fill="#0A0B0D"/>
<path d="M367.5 240.9H320.6V283.3H367.5V240.9Z" stroke="#EEF0F2"/>
<path d="M330.6 246.9H328.6C327.495 246.9 326.6 247.795 326.6 248.9C326.6 250.005 327.495 250.9 328.6 250.9H330.6C331.704 250.9 332.6 250.005 332.6 248.9C332.6 247.795 331.704 246.9 330.6 246.9Z" fill="#0A0B0D"/>
<path d="M414.3 240.9H367.4V283.3H414.3V240.9Z" stroke="#EEF0F2"/>
<path d="M377.4 246.9H375.4C374.296 246.9 373.4 247.795 373.4 248.9C373.4 250.005 374.296 250.9 375.4 250.9H377.4C378.505 250.9 379.4 250.005 379.4 248.9C379.4 247.795 378.505 246.9 377.4 246.9Z" fill="#0A0B0D"/>
<path d="M461.2 240.9H414.3V283.3H461.2V240.9Z" stroke="#EEF0F2"/>
<path d="M427.3 246.9H422.3C421.195 246.9 420.3 247.795 420.3 248.9C420.3 250.005 421.195 250.9 422.3 250.9H427.3C428.404 250.9 429.3 250.005 429.3 248.9C429.3 247.795 428.404 246.9 427.3 246.9Z" fill="#0A0B0D"/>
<path d="M508 240.9H461.1V283.3H508V240.9Z" stroke="#EEF0F2"/>
<path d="M474.1 246.9H469.1C467.995 246.9 467.1 247.795 467.1 248.9C467.1 250.005 467.995 250.9 469.1 250.9H474.1C475.204 250.9 476.1 250.005 476.1 248.9C476.1 247.795 475.204 246.9 474.1 246.9Z" fill="#0A0B0D"/>
<path d="M226.9 283.3H180V325.7H226.9V283.3Z" stroke="#EEF0F2"/>
<path d="M190 289.3H188C186.895 289.3 186 290.195 186 291.3C186 292.405 186.895 293.3 188 293.3H190C191.105 293.3 192 292.405 192 291.3C192 290.195 191.105 289.3 190 289.3Z" fill="#0A0B0D"/>
<path d="M273.8 283.3H226.9V325.7H273.8V283.3Z" stroke="#EEF0F2"/>
<path d="M236.9 289.3H234.9C233.796 289.3 232.9 290.195 232.9 291.3C232.9 292.405 233.796 293.3 234.9 293.3H236.9C238.005 293.3 238.9 292.405 238.9 291.3C238.9 290.195 238.005 289.3 236.9 289.3Z" fill="#0A0B0D"/>
<path d="M320.6 283.3H273.7V325.7H320.6V283.3Z" stroke="#EEF0F2"/>
<path d="M286.7 289.3H281.7C280.596 289.3 279.7 290.195 279.7 291.3C279.7 292.405 280.596 293.3 281.7 293.3H286.7C287.805 293.3 288.7 292.405 288.7 291.3C288.7 290.195 287.805 289.3 286.7 289.3Z" fill="#0A0B0D"/>
<path d="M367.5 283.3H320.6V325.7H367.5V283.3Z" stroke="#EEF0F2"/>
<path d="M333.6 289.3H328.6C327.495 289.3 326.6 290.195 326.6 291.3C326.6 292.405 327.495 293.3 328.6 293.3H333.6C334.704 293.3 335.6 292.405 335.6 291.3C335.6 290.195 334.704 289.3 333.6 289.3Z" fill="#0A0B0D"/>
<path d="M414.3 283.3H367.4V325.7H414.3V283.3Z" stroke="#EEF0F2"/>
<path d="M380.4 289.3H375.4C374.296 289.3 373.4 290.195 373.4 291.3C373.4 292.405 374.296 293.3 375.4 293.3H380.4C381.505 293.3 382.4 292.405 382.4 291.3C382.4 290.195 381.505 289.3 380.4 289.3Z" fill="#0A0B0D"/>
<path d="M461.2 283.3H414.3V325.7H461.2V283.3Z" stroke="#EEF0F2"/>
<path d="M424.3 289.3H422.3C421.195 289.3 420.3 290.195 420.3 291.3C420.3 292.405 421.195 293.3 422.3 293.3H424.3C425.404 293.3 426.3 292.405 426.3 291.3C426.3 290.195 425.404 289.3 424.3 289.3Z" fill="#0A0B0D"/>
<path d="M508 283.3H461.1V325.7H508V283.3Z" stroke="#EEF0F2"/>
<path d="M474.1 289.3H469.1C467.995 289.3 467.1 290.195 467.1 291.3C467.1 292.405 467.995 293.3 469.1 293.3H474.1C475.204 293.3 476.1 292.405 476.1 291.3C476.1 290.195 475.204 289.3 474.1 289.3Z" fill="#0A0B0D"/>
<path d="M226.9 325.7H180V368.1H226.9V325.7Z" stroke="#EEF0F2"/>
<path d="M190 331.7H188C186.895 331.7 186 332.595 186 333.7C186 334.805 186.895 335.7 188 335.7H190C191.105 335.7 192 334.805 192 333.7C192 332.595 191.105 331.7 190 331.7Z" fill="#0A0B0D"/>
<path d="M273.8 325.7H226.9V368.1H273.8V325.7Z" stroke="#EEF0F2"/>
<path d="M239.9 331.7H234.9C233.796 331.7 232.9 332.595 232.9 333.7C232.9 334.805 233.796 335.7 234.9 335.7H239.9C241.005 335.7 241.9 334.805 241.9 333.7C241.9 332.595 241.005 331.7 239.9 331.7Z" fill="#0A0B0D"/>
<path d="M320.6 325.7H273.7V368.1H320.6V325.7Z" stroke="#EEF0F2"/>
<path d="M283.7 331.7H281.7C280.596 331.7 279.7 332.595 279.7 333.7C279.7 334.805 280.596 335.7 281.7 335.7H283.7C284.805 335.7 285.7 334.805 285.7 333.7C285.7 332.595 284.805 331.7 283.7 331.7Z" fill="#0A0B0D"/>
<path d="M367.5 325.7H320.6V368.1H367.5V325.7Z" stroke="#EEF0F2"/>
<path d="M330.6 331.7H328.6C327.495 331.7 326.6 332.595 326.6 333.7C326.6 334.805 327.495 335.7 328.6 335.7H330.6C331.704 335.7 332.6 334.805 332.6 333.7C332.6 332.595 331.704 331.7 330.6 331.7Z" fill="#0A0B0D"/>
<path d="M414.3 325.7H367.4V368.1H414.3V325.7Z" stroke="#EEF0F2"/>
<path d="M377.4 331.7H375.4C374.296 331.7 373.4 332.595 373.4 333.7C373.4 334.805 374.296 335.7 375.4 335.7H377.4C378.505 335.7 379.4 334.805 379.4 333.7C379.4 332.595 378.505 331.7 377.4 331.7Z" fill="#0A0B0D"/>
<path d="M461.2 325.7H414.3V368.1H461.2V325.7Z" stroke="#EEF0F2"/>
<path d="M424.3 331.7H422.3C421.195 331.7 420.3 332.595 420.3 333.7C420.3 334.805 421.195 335.7 422.3 335.7H424.3C425.404 335.7 426.3 334.805 426.3 333.7C426.3 332.595 425.404 331.7 424.3 331.7Z" fill="#0A0B0D"/>
<path d="M508 325.7H461.1V368.1H508V325.7Z" stroke="#EEF0F2"/>
<path d="M474.1 331.7H469.1C467.995 331.7 467.1 332.595 467.1 333.7C467.1 334.805 467.995 335.7 469.1 335.7H474.1C475.204 335.7 476.1 334.805 476.1 333.7C476.1 332.595 475.204 331.7 474.1 331.7Z" fill="#0A0B0D"/>
<path d="M226.9 368.1H180V410.5H226.9V368.1Z" stroke="#EEF0F2"/>
<path d="M190 374.1H188C186.895 374.1 186 374.995 186 376.1C186 377.205 186.895 378.1 188 378.1H190C191.105 378.1 192 377.205 192 376.1C192 374.995 191.105 374.1 190 374.1Z" fill="#0A0B0D"/>
<path d="M273.8 368.1H226.9V410.5H273.8V368.1Z" stroke="#EEF0F2"/>
<path d="M239.9 374.1H234.9C233.796 374.1 232.9 374.995 232.9 376.1C232.9 377.205 233.796 378.1 234.9 378.1H239.9C241.005 378.1 241.9 377.205 241.9 376.1C241.9 374.995 241.005 374.1 239.9 374.1Z" fill="#0A0B0D"/>
<path d="M320.6 368.1H273.7V410.5H320.6V368.1Z" stroke="#EEF0F2"/>
<path d="M286.7 374.1H281.7C280.596 374.1 279.7 374.995 279.7 376.1C279.7 377.205 280.596 378.1 281.7 378.1H286.7C287.805 378.1 288.7 377.205 288.7 376.1C288.7 374.995 287.805 374.1 286.7 374.1Z" fill="#0A0B0D"/>
<path d="M367.5 368.1H320.6V410.5H367.5V368.1Z" stroke="#EEF0F2"/>
<path d="M330.6 374.1H328.6C327.495 374.1 326.6 374.995 326.6 376.1C326.6 377.205 327.495 378.1 328.6 378.1H330.6C331.704 378.1 332.6 377.205 332.6 376.1C332.6 374.995 331.704 374.1 330.6 374.1Z" fill="#0A0B0D"/>
<path d="M414.3 368.1H367.4V410.5H414.3V368.1Z" stroke="#EEF0F2"/>
<path d="M380.4 374.1H375.4C374.296 374.1 373.4 374.995 373.4 376.1C373.4 377.205 374.296 378.1 375.4 378.1H380.4C381.505 378.1 382.4 377.205 382.4 376.1C382.4 374.995 381.505 374.1 380.4 374.1Z" fill="#0A0B0D"/>
<path d="M461.2 368.1H414.3V410.5H461.2V368.1Z" stroke="#EEF0F2"/>
<path d="M424.3 374.1H422.3C421.195 374.1 420.3 374.995 420.3 376.1C420.3 377.205 421.195 378.1 422.3 378.1H424.3C425.404 378.1 426.3 377.205 426.3 376.1C426.3 374.995 425.404 374.1 424.3 374.1Z" fill="#0A0B0D"/>
<path d="M508 368.1H461.1V410.5H508V368.1Z" stroke="#EEF0F2"/>
<path d="M471.1 374.1H469.1C467.995 374.1 467.1 374.995 467.1 376.1C467.1 377.205 467.995 378.1 469.1 378.1H471.1C472.204 378.1 473.1 377.205 473.1 376.1C473.1 374.995 472.204 374.1 471.1 374.1Z" fill="#0A0B0D"/>
<path d="M226.9 410.6H180V453H226.9V410.6Z" stroke="#EEF0F2"/>
<path d="M190 416.6H188C186.895 416.6 186 417.495 186 418.6C186 419.705 186.895 420.6 188 420.6H190C191.105 420.6 192 419.705 192 418.6C192 417.495 191.105 416.6 190 416.6Z" fill="#0A0B0D"/>
<path d="M273.8 410.6H226.9V453H273.8V410.6Z" stroke="#EEF0F2"/>
<path d="M239.9 416.6H234.9C233.796 416.6 232.9 417.495 232.9 418.6C232.9 419.705 233.796 420.6 234.9 420.6H239.9C241.005 420.6 241.9 419.705 241.9 418.6C241.9 417.495 241.005 416.6 239.9 416.6Z" fill="#0A0B0D"/>
<path d="M320.6 410.6H273.7V453H320.6V410.6Z" stroke="#EEF0F2"/>
<path d="M286.7 416.6H281.7C280.596 416.6 279.7 417.495 279.7 418.6C279.7 419.705 280.596 420.6 281.7 420.6H286.7C287.805 420.6 288.7 419.705 288.7 418.6C288.7 417.495 287.805 416.6 286.7 416.6Z" fill="#0A0B0D"/>
<path d="M367.5 410.6H320.6V453H367.5V410.6Z" stroke="#EEF0F2"/>
<path d="M330.6 416.6H328.6C327.495 416.6 326.6 417.495 326.6 418.6C326.6 419.705 327.495 420.6 328.6 420.6H330.6C331.704 420.6 332.6 419.705 332.6 418.6C332.6 417.495 331.704 416.6 330.6 416.6Z" fill="#0A0B0D"/>
<path d="M414.3 410.6H367.4V453H414.3V410.6Z" stroke="#EEF0F2"/>
<path d="M380.4 416.6H375.4C374.296 416.6 373.4 417.495 373.4 418.6C373.4 419.705 374.296 420.6 375.4 420.6H380.4C381.505 420.6 382.4 419.705 382.4 418.6C382.4 417.495 381.505 416.6 380.4 416.6Z" fill="#CFD3D6"/>
<path d="M461.2 410.6H414.3V453H461.2V410.6Z" stroke="#EEF0F2"/>
<path d="M427.3 416.6H422.3C421.195 416.6 420.3 417.495 420.3 418.6C420.3 419.705 421.195 420.6 422.3 420.6H427.3C428.404 420.6 429.3 419.705 429.3 418.6C429.3 417.495 428.404 416.6 427.3 416.6Z" fill="#CFD3D6"/>
<path d="M508 410.6H461.1V453H508V410.6Z" stroke="#EEF0F2"/>
<path d="M471.1 416.6H469.1C467.995 416.6 467.1 417.495 467.1 418.6C467.1 419.705 467.995 420.6 469.1 420.6H471.1C472.204 420.6 473.1 419.705 473.1 418.6C473.1 417.495 472.204 416.6 471.1 416.6Z" fill="#CFD3D6"/>
<path d="M225.9 241.9H181V282.3H225.9V241.9Z" fill="#FFECEB"/>
<path d="M193 246.9H188C186.895 246.9 186 247.795 186 248.9C186 250.005 186.895 250.9 188 250.9H193C194.105 250.9 195 250.005 195 248.9C195 247.795 194.105 246.9 193 246.9Z" fill="#0A0B0D"/>
<path d="M191 274.5C192.767 274.5 194.2 273.067 194.2 271.3C194.2 269.533 192.767 268.1 191 268.1C189.232 268.1 187.8 269.533 187.8 271.3C187.8 273.067 189.232 274.5 191 274.5Z" fill="#D7352D"/>
<path d="M218 269.3H200C198.895 269.3 198 270.195 198 271.3C198 272.405 198.895 273.3 200 273.3H218C219.105 273.3 220 272.405 220 271.3C220 270.195 219.105 269.3 218 269.3Z" fill="#D7352D"/>
<path d="M471.143 224.857H475.143V227.857L478.143 233.857H468.143L471.143 227.857V224.857Z" fill="#9C9FA2"/>
<path d="M501.143 227.857H483.143C482.038 227.857 481.143 228.753 481.143 229.857C481.143 230.962 482.038 231.857 483.143 231.857H501.143C502.247 231.857 503.143 230.962 503.143 229.857C503.143 228.753 502.247 227.857 501.143 227.857Z" fill="#9C9FA2"/>
<path d="M471.143 352.143H475.143V355.143L478.143 361.143H468.143L471.143 355.143V352.143Z" fill="#9C9FA2"/>
<path d="M501.143 355.143H483.143C482.038 355.143 481.143 356.038 481.143 357.143C481.143 358.247 482.038 359.143 483.143 359.143H501.143C502.247 359.143 503.143 358.247 503.143 357.143C503.143 356.038 502.247 355.143 501.143 355.143Z" fill="#9C9FA2"/>
<path d="M566 138V467" stroke="#E8E5E2" stroke-width="2"/>
<path d="M566 161C570.971 161 575 156.971 575 152C575 147.029 570.971 143 566 143C561.029 143 557 147.029 557 152C557 156.971 561.029 161 566 161Z" fill="#2D9D5A"/>
<path d="M569 150H563C561.895 150 561 150.895 561 152C561 153.105 561.895 154 563 154H569C570.105 154 571 153.105 571 152C571 150.895 570.105 150 569 150Z" fill="white"/>
<path d="M555 149H545C543.343 149 542 150.343 542 152C542 153.657 543.343 155 545 155H555C556.657 155 558 153.657 558 152C558 150.343 556.657 149 555 149Z" fill="#2D9D5A"/>
<path d="M574 152L582 146V158L574 152Z" fill="white" stroke="#DADEE1"/>
<path d="M808 135H594C589.582 135 586 138.582 586 143V161C586 165.418 589.582 169 594 169H808C812.418 169 816 165.418 816 161V143C816 138.582 812.418 135 808 135Z" fill="white" stroke="#DADEE1"/>
<path d="M602 160C606.418 160 610 156.418 610 152C610 147.582 606.418 144 602 144C597.582 144 594 147.582 594 152C594 156.418 597.582 160 602 160Z" fill="#D7352D"/>
<path d="M604.828 150.586C605.219 150.195 605.219 149.562 604.828 149.172C604.438 148.781 603.805 148.781 603.414 149.172L599.171 153.414C598.781 153.805 598.781 154.438 599.171 154.828C599.562 155.219 600.195 155.219 600.586 154.828L604.828 150.586Z" fill="white"/>
<path d="M701 145H621C619.343 145 618 146.343 618 148C618 149.657 619.343 151 621 151H701C702.657 151 704 149.657 704 148C704 146.343 702.657 145 701 145Z" fill="#0A0B0D"/>
<path d="M735.5 155H620.5C619.119 155 618 156.119 618 157.5C618 158.881 619.119 160 620.5 160H735.5C736.881 160 738 158.881 738 157.5C738 156.119 736.881 155 735.5 155Z" fill="#9C9FA2"/>
<path d="M808 171H608C603.582 171 600 174.582 600 179V193C600 197.418 603.582 201 608 201H808C812.418 201 816 197.418 816 193V179C816 174.582 812.418 171 808 171Z" fill="white" stroke="#DADEE1"/>
<path d="M616 195C620.971 195 625 190.971 625 186C625 181.029 620.971 177 616 177C611.029 177 607 181.029 607 186C607 190.971 611.029 195 616 195Z" fill="#F3F1EF" stroke="#DADEE1"/>
<path d="M613 182H617V184L620 189H610L613 184V182Z" fill="#9C9FA2"/>
<path d="M719.5 180H634.5C633.119 180 632 181.119 632 182.5C632 183.881 633.119 185 634.5 185H719.5C720.881 185 722 183.881 722 182.5C722 181.119 720.881 180 719.5 180Z" fill="#0A0B0D"/>
<path d="M704 188H634C632.895 188 632 188.895 632 190C632 191.105 632.895 192 634 192H704C705.105 192 706 191.105 706 190C706 188.895 705.105 188 704 188Z" fill="#9C9FA2"/>
<path d="M566 217C567.657 217 569 215.657 569 214C569 212.343 567.657 211 566 211C564.343 211 563 212.343 563 214C563 215.657 564.343 217 566 217Z" fill="#9C9FA2"/>
<path d="M554 212H546C544.895 212 544 212.895 544 214C544 215.105 544.895 216 546 216H554C555.105 216 556 215.105 556 214C556 212.895 555.105 212 554 212Z" fill="#B9B6B1"/>
<path d="M566 259C570.971 259 575 254.971 575 250C575 245.029 570.971 241 566 241C561.029 241 557 245.029 557 250C557 254.971 561.029 259 566 259Z" fill="#2D9D5A"/>
<path d="M569 248H563C561.895 248 561 248.895 561 250C561 251.105 561.895 252 563 252H569C570.105 252 571 251.105 571 250C571 248.895 570.105 248 569 248Z" fill="white"/>
<path d="M555 247H545C543.343 247 542 248.343 542 250C542 251.657 543.343 253 545 253H555C556.657 253 558 251.657 558 250C558 248.343 556.657 247 555 247Z" fill="#2D9D5A"/>
<path d="M574 250L582 244V256L574 250Z" fill="white" stroke="#DADEE1"/>
<path d="M808 233H594C589.582 233 586 236.582 586 241V259C586 263.418 589.582 267 594 267H808C812.418 267 816 263.418 816 259V241C816 236.582 812.418 233 808 233Z" fill="white" stroke="#DADEE1"/>
<path d="M602 258C606.418 258 610 254.418 610 250C610 245.582 606.418 242 602 242C597.582 242 594 245.582 594 250C594 254.418 597.582 258 602 258Z" fill="#D7352D"/>
<path d="M604.828 248.586C605.219 248.195 605.219 247.562 604.828 247.172C604.438 246.781 603.805 246.781 603.414 247.172L599.171 251.414C598.781 251.805 598.781 252.438 599.171 252.828C599.562 253.219 600.195 253.219 600.586 252.828L604.828 248.586Z" fill="white"/>
<path d="M693 243H621C619.343 243 618 244.343 618 246C618 247.657 619.343 249 621 249H693C694.657 249 696 247.657 696 246C696 244.343 694.657 243 693 243Z" fill="#0A0B0D"/>
<path d="M735.5 253H620.5C619.119 253 618 254.119 618 255.5C618 256.881 619.119 258 620.5 258H735.5C736.881 258 738 256.881 738 255.5C738 254.119 736.881 253 735.5 253Z" fill="#9C9FA2"/>
<path d="M566 287C567.657 287 569 285.657 569 284C569 282.343 567.657 281 566 281C564.343 281 563 282.343 563 284C563 285.657 564.343 287 566 287Z" fill="#9C9FA2"/>
<path d="M554 282H546C544.895 282 544 282.895 544 284C544 285.105 544.895 286 546 286H554C555.105 286 556 285.105 556 284C556 282.895 555.105 282 554 282Z" fill="#B9B6B1"/>
<path d="M808 269H608C603.582 269 600 272.582 600 277V291C600 295.418 603.582 299 608 299H808C812.418 299 816 295.418 816 291V277C816 272.582 812.418 269 808 269Z" fill="white" stroke="#DADEE1"/>
<path d="M616 293C620.971 293 625 288.971 625 284C625 279.029 620.971 275 616 275C611.029 275 607 279.029 607 284C607 288.971 611.029 293 616 293Z" fill="#F3F1EF" stroke="#DADEE1"/>
<path d="M613 280H617V282L620 287H610L613 282V280Z" fill="#9C9FA2"/>
<path d="M713.5 278H634.5C633.119 278 632 279.119 632 280.5C632 281.881 633.119 283 634.5 283H713.5C714.881 283 716 281.881 716 280.5C716 279.119 714.881 278 713.5 278Z" fill="#0A0B0D"/>
<path d="M704 286H634C632.895 286 632 286.895 632 288C632 289.105 632.895 290 634 290H704C705.105 290 706 289.105 706 288C706 286.895 705.105 286 704 286Z" fill="#9C9FA2"/>
<path d="M566 315C567.657 315 569 313.657 569 312C569 310.343 567.657 309 566 309C564.343 309 563 310.343 563 312C563 313.657 564.343 315 566 315Z" fill="#9C9FA2"/>
<path d="M554 310H546C544.895 310 544 310.895 544 312C544 313.105 544.895 314 546 314H554C555.105 314 556 313.105 556 312C556 310.895 555.105 310 554 310Z" fill="#B9B6B1"/>
<path d="M566 359C570.971 359 575 354.971 575 350C575 345.029 570.971 341 566 341C561.029 341 557 345.029 557 350C557 354.971 561.029 359 566 359Z" fill="#2D9D5A"/>
<path d="M569 348H563C561.895 348 561 348.895 561 350C561 351.105 561.895 352 563 352H569C570.105 352 571 351.105 571 350C571 348.895 570.105 348 569 348Z" fill="white"/>
<path d="M555 347H545C543.343 347 542 348.343 542 350C542 351.657 543.343 353 545 353H555C556.657 353 558 351.657 558 350C558 348.343 556.657 347 555 347Z" fill="#2D9D5A"/>
<path d="M574 350L582 344V356L574 350Z" fill="white" stroke="#DADEE1"/>
<path d="M808 333H594C589.582 333 586 336.582 586 341V359C586 363.418 589.582 367 594 367H808C812.418 367 816 363.418 816 359V341C816 336.582 812.418 333 808 333Z" fill="white" stroke="#DADEE1"/>
<path d="M602 358C606.418 358 610 354.418 610 350C610 345.582 606.418 342 602 342C597.582 342 594 345.582 594 350C594 354.418 597.582 358 602 358Z" fill="#D7352D"/>
<path d="M604.828 348.586C605.219 348.195 605.219 347.562 604.828 347.172C604.438 346.781 603.805 346.781 603.414 347.172L599.171 351.414C598.781 351.805 598.781 352.438 599.171 352.828C599.562 353.219 600.195 353.219 600.586 352.828L604.828 348.586Z" fill="white"/>
<path d="M705 343H621C619.343 343 618 344.343 618 346C618 347.657 619.343 349 621 349H705C706.657 349 708 347.657 708 346C708 344.343 706.657 343 705 343Z" fill="#0A0B0D"/>
<path d="M735.5 353H620.5C619.119 353 618 354.119 618 355.5C618 356.881 619.119 358 620.5 358H735.5C736.881 358 738 356.881 738 355.5C738 354.119 736.881 353 735.5 353Z" fill="#9C9FA2"/>
<path d="M808 371H608C603.582 371 600 374.582 600 379V393C600 397.418 603.582 401 608 401H808C812.418 401 816 397.418 816 393V379C816 374.582 812.418 371 808 371Z" fill="white" stroke="#DADEE1"/>
<path d="M616 395C620.971 395 625 390.971 625 386C625 381.029 620.971 377 616 377C611.029 377 607 381.029 607 386C607 390.971 611.029 395 616 395Z" fill="#F3F1EF" stroke="#DADEE1"/>
<path d="M613 382H617V384L620 389H610L613 384V382Z" fill="#9C9FA2"/>
<path d="M709.5 380H634.5C633.119 380 632 381.119 632 382.5C632 383.881 633.119 385 634.5 385H709.5C710.881 385 712 383.881 712 382.5C712 381.119 710.881 380 709.5 380Z" fill="#0A0B0D"/>
<path d="M704 388H634C632.895 388 632 388.895 632 390C632 391.105 632.895 392 634 392H704C705.105 392 706 391.105 706 390C706 388.895 705.105 388 704 388Z" fill="#9C9FA2"/>
<path d="M566 417C567.657 417 569 415.657 569 414C569 412.343 567.657 411 566 411C564.343 411 563 412.343 563 414C563 415.657 564.343 417 566 417Z" fill="#9C9FA2"/>
<path d="M554 412H546C544.895 412 544 412.895 544 414C544 415.105 544.895 416 546 416H554C555.105 416 556 415.105 556 414C556 412.895 555.105 412 554 412Z" fill="#B9B6B1"/>
<path d="M566 459C570.971 459 575 454.971 575 450C575 445.029 570.971 441 566 441C561.029 441 557 445.029 557 450C557 454.971 561.029 459 566 459Z" fill="#2D9D5A"/>
<path d="M569 448H563C561.895 448 561 448.895 561 450C561 451.105 561.895 452 563 452H569C570.105 452 571 451.105 571 450C571 448.895 570.105 448 569 448Z" fill="white"/>
<path d="M555 447H545C543.343 447 542 448.343 542 450C542 451.657 543.343 453 545 453H555C556.657 453 558 451.657 558 450C558 448.343 556.657 447 555 447Z" fill="#2D9D5A"/>
<path d="M574 450L582 444V456L574 450Z" fill="white" stroke="#DADEE1"/>
<path d="M808 433H594C589.582 433 586 436.582 586 441V459C586 463.418 589.582 467 594 467H808C812.418 467 816 463.418 816 459V441C816 436.582 812.418 433 808 433Z" fill="white" stroke="#DADEE1"/>
<path d="M602 458C606.418 458 610 454.418 610 450C610 445.582 606.418 442 602 442C597.582 442 594 445.582 594 450C594 454.418 597.582 458 602 458Z" fill="#D7352D"/>
<path d="M604.828 448.586C605.219 448.195 605.219 447.562 604.828 447.172C604.438 446.781 603.805 446.781 603.414 447.172L599.171 451.414C598.781 451.805 598.781 452.438 599.171 452.828C599.562 453.219 600.195 453.219 600.586 452.828L604.828 448.586Z" fill="white"/>
<path d="M689 443H621C619.343 443 618 444.343 618 446C618 447.657 619.343 449 621 449H689C690.657 449 692 447.657 692 446C692 444.343 690.657 443 689 443Z" fill="#0A0B0D"/>
<path d="M735.5 453H620.5C619.119 453 618 454.119 618 455.5C618 456.881 619.119 458 620.5 458H735.5C736.881 458 738 456.881 738 455.5C738 454.119 736.881 453 735.5 453Z" fill="#9C9FA2"/>
</g>
<path d="M829 1H11C5.47715 1 1 5.47715 1 11V480C1 485.523 5.47715 490 11 490H829C834.523 490 839 485.523 839 480V11C839 5.47715 834.523 1 829 1Z" stroke="#0A0B0D" stroke-width="2"/>
<circle cx="22" cy="15.5" r="5.4" stroke="#0A0B0D" stroke-width="1.2"/>
<circle cx="38" cy="15.5" r="5.4" stroke="#0A0B0D" stroke-width="1.2"/>
<circle cx="54" cy="15.5" r="5.4" stroke="#0A0B0D" stroke-width="1.2"/>
<rect x="77.6" y="8.6" width="692.8" height="13.8" rx="6.9" stroke="#0A0B0D" stroke-width="1.2"/>
</g>
<defs>
<clipPath id="clip0_74_2974">
<rect width="840" height="491" fill="white"/>
</clipPath>
</defs>
</g>
</svg>
