<svg width="840" height="491" viewBox="0 0 840 491" fill="none" xmlns="http://www.w3.org/2000/svg">
<rect x="0" y="0" width="840" height="491" rx="15.1" fill="#F3F1EF"/>
<g transform="translate(67.2,39.28) scale(0.84)">
<g clip-path="url(#clip0_74_2574)">
<path d="M829 1H11C5.47715 1 1 5.47715 1 11V480C1 485.523 5.47715 490 11 490H829C834.523 490 839 485.523 839 480V11C839 5.47715 834.523 1 829 1Z" fill="#F3F1EF"/>
<mask id="mask0_74_2574" style="mask-type:luminance" maskUnits="userSpaceOnUse" x="2" y="2" width="836" height="487">
<path d="M829 2H11C6.02944 2 2 6.02944 2 11V480C2 484.971 6.02944 489 11 489H829C833.971 489 838 484.971 838 480V11C838 6.02944 833.971 2 829 2Z" fill="white"/>
</mask>
<g mask="url(#mask0_74_2574)">
<path d="M1 31H160V489H11C8.34784 489 5.8043 487.946 3.92893 486.071C2.05357 484.196 1 481.652 1 479V31Z" fill="#EEEBE7"/>
<path d="M22 46H17C15.3431 46 14 47.3431 14 49V54C14 55.6569 15.3431 57 17 57H22C23.6569 57 25 55.6569 25 54V49C25 47.3431 23.6569 46 22 46Z" fill="#0A0B0D"/>
<path d="M82.5 48H33.5C31.567 48 30 49.567 30 51.5C30 53.433 31.567 55 33.5 55H82.5C84.433 55 86 53.433 86 51.5C86 49.567 84.433 48 82.5 48Z" fill="#0A0B0D"/>
<path d="M145 78H15C11.6863 78 9 80.6863 9 84V96C9 99.3137 11.6863 102 15 102H145C148.314 102 151 99.3137 151 96V84C151 80.6863 148.314 78 145 78Z" fill="#D7352D"/>
<path d="M27 86H23C21.3431 86 20 87.3431 20 89V93C20 94.6569 21.3431 96 23 96H27C28.6569 96 30 94.6569 30 93V89C30 87.3431 28.6569 86 27 86Z" fill="#F3F1EF"/>
<path d="M93 88H39C37.3431 88 36 89.3431 36 91C36 92.6569 37.3431 94 39 94H93C94.6569 94 96 92.6569 96 91C96 89.3431 94.6569 88 93 88Z" fill="#F3F1EF"/>
<path d="M25 118H21C19.3431 118 18 119.343 18 121V125C18 126.657 19.3431 128 21 128H25C26.6569 128 28 126.657 28 125V121C28 119.343 26.6569 118 25 118Z" fill="#9C9FA2"/>
<path d="M107 120H37C35.3431 120 34 121.343 34 123V124C34 125.657 35.3431 127 37 127H107C108.657 127 110 125.657 110 124V123C110 121.343 108.657 120 107 120Z" fill="#9C9FA2"/>
<path d="M25 145H21C19.3431 145 18 146.343 18 148V152C18 153.657 19.3431 155 21 155H25C26.6569 155 28 153.657 28 152V148C28 146.343 26.6569 145 25 145Z" fill="#9C9FA2"/>
<path d="M87 147H37C35.3431 147 34 148.343 34 150V151C34 152.657 35.3431 154 37 154H87C88.6569 154 90 152.657 90 151V150C90 148.343 88.6569 147 87 147Z" fill="#9C9FA2"/>
<path d="M25 172H21C19.3431 172 18 173.343 18 175V179C18 180.657 19.3431 182 21 182H25C26.6569 182 28 180.657 28 179V175C28 173.343 26.6569 172 25 172Z" fill="#9C9FA2"/>
<path d="M99 174H37C35.3431 174 34 175.343 34 177V178C34 179.657 35.3431 181 37 181H99C100.657 181 102 179.657 102 178V177C102 175.343 100.657 174 99 174Z" fill="#9C9FA2"/>
<path d="M25 199H21C19.3431 199 18 200.343 18 202V206C18 207.657 19.3431 209 21 209H25C26.6569 209 28 207.657 28 206V202C28 200.343 26.6569 199 25 199Z" fill="#9C9FA2"/>
<path d="M79 201H37C35.3431 201 34 202.343 34 204V205C34 206.657 35.3431 208 37 208H79C80.6569 208 82 206.657 82 205V204C82 202.343 80.6569 201 79 201Z" fill="#9C9FA2"/>
<path d="M25 226H21C19.3431 226 18 227.343 18 229V233C18 234.657 19.3431 236 21 236H25C26.6569 236 28 234.657 28 233V229C28 227.343 26.6569 226 25 226Z" fill="#9C9FA2"/>
<path d="M93 228H37C35.3431 228 34 229.343 34 231V232C34 233.657 35.3431 235 37 235H93C94.6569 235 96 233.657 96 232V231C96 229.343 94.6569 228 93 228Z" fill="#9C9FA2"/>
<path d="M25 253H21C19.3431 253 18 254.343 18 256V260C18 261.657 19.3431 263 21 263H25C26.6569 263 28 261.657 28 260V256C28 254.343 26.6569 253 25 253Z" fill="#9C9FA2"/>
<path d="M75 255H37C35.3431 255 34 256.343 34 258V259C34 260.657 35.3431 262 37 262H75C76.6569 262 78 260.657 78 259V258C78 256.343 76.6569 255 75 255Z" fill="#9C9FA2"/>
<path d="M160 31V489" stroke="#0A0B0D" stroke-width="2"/>
<path d="M1 31H839" stroke="#0A0B0D" stroke-width="2"/>
<path d="M22 21C25.0376 21 27.5 18.5376 27.5 15.5C27.5 12.4624 25.0376 10 22 10C18.9624 10 16.5 12.4624 16.5 15.5C16.5 18.5376 18.9624 21 22 21Z" fill="#CDC9C4"/>
<path d="M38 21C41.0376 21 43.5 18.5376 43.5 15.5C43.5 12.4624 41.0376 10 38 10C34.9624 10 32.5 12.4624 32.5 15.5C32.5 18.5376 34.9624 21 38 21Z" fill="#CDC9C4"/>
<path d="M54 21C57.0376 21 59.5 18.5376 59.5 15.5C59.5 12.4624 57.0376 10 54 10C50.9624 10 48.5 12.4624 48.5 15.5C48.5 18.5376 50.9624 21 54 21Z" fill="#CDC9C4"/>
<path d="M763.5 8H84.5C80.3579 8 77 11.3579 77 15.5C77 19.6421 80.3579 23 84.5 23H763.5C767.642 23 771 19.6421 771 15.5C771 11.3579 767.642 8 763.5 8Z" stroke="#0A0B0D" stroke-width="1.2"/>
<path d="M820 43H174C169.582 43 166 46.5817 166 51V69C166 73.4183 169.582 77 174 77H820C824.418 77 828 73.4183 828 69V51C828 46.5817 824.418 43 820 43Z" fill="white" stroke="#DADEE1"/>
<path d="M254 61H296" stroke="#DADEE1" stroke-width="1.2"/>
<path d="M368 61H410" stroke="#DADEE1" stroke-width="1.2"/>
<path d="M486 61H528" stroke="#DADEE1" stroke-width="1.2"/>
<path d="M600 61H642" stroke="#DADEE1" stroke-width="1.2"/>
<path d="M197 52H191C188.239 52 186 54.2386 186 57V63C186 65.7614 188.239 68 191 68H197C199.761 68 202 65.7614 202 63V57C202 54.2386 199.761 52 197 52Z" fill="#0A0B0D"/>
<path d="M249 57H211C209.343 57 208 58.3431 208 60C208 61.6569 209.343 63 211 63H249C250.657 63 252 61.6569 252 60C252 58.3431 250.657 57 249 57Z" fill="#9C9FA2"/>
<path d="M311 52H305C302.239 52 300 54.2386 300 57V63C300 65.7614 302.239 68 305 68H311C313.761 68 316 65.7614 316 63V57C316 54.2386 313.761 52 311 52Z" fill="#0A0B0D"/>
<path d="M363 57H325C323.343 57 322 58.3431 322 60C322 61.6569 323.343 63 325 63H363C364.657 63 366 61.6569 366 60C366 58.3431 364.657 57 363 57Z" fill="#9C9FA2"/>
<path d="M425 52H419C416.239 52 414 54.2386 414 57V63C414 65.7614 416.239 68 419 68H425C427.761 68 430 65.7614 430 63V57C430 54.2386 427.761 52 425 52Z" fill="#D7352D"/>
<path d="M481 57H439C437.343 57 436 58.3431 436 60C436 61.6569 437.343 63 439 63H481C482.657 63 484 61.6569 484 60C484 58.3431 482.657 57 481 57Z" fill="#0A0B0D"/>
<path d="M543 52H537C534.239 52 532 54.2386 532 57V63C532 65.7614 534.239 68 537 68H543C545.761 68 548 65.7614 548 63V57C548 54.2386 545.761 52 543 52Z" stroke="#9C9FA2" stroke-width="1.5"/>
<path d="M595 57H557C555.343 57 554 58.3431 554 60C554 61.6569 555.343 63 557 63H595C596.657 63 598 61.6569 598 60C598 58.3431 596.657 57 595 57Z" fill="#9C9FA2"/>
<path d="M657 52H651C648.239 52 646 54.2386 646 57V63C646 65.7614 648.239 68 651 68H657C659.761 68 662 65.7614 662 63V57C662 54.2386 659.761 52 657 52Z" stroke="#9C9FA2" stroke-width="1.5"/>
<path d="M705 57H671C669.343 57 668 58.3431 668 60C668 61.6569 669.343 63 671 63H705C706.657 63 708 61.6569 708 60C708 58.3431 706.657 57 705 57Z" fill="#9C9FA2"/>
<path d="M820 85H174C169.582 85 166 88.5817 166 93V395C166 399.418 169.582 403 174 403H820C824.418 403 828 399.418 828 395V93C828 88.5817 824.418 85 820 85Z" stroke="#DADEE1"/>
<path d="M805 95H723C716.925 95 712 99.9249 712 106C712 112.075 716.925 117 723 117H805C811.075 117 816 112.075 816 106C816 99.9249 811.075 95 805 95Z" fill="#D7352D"/>
<path d="M724 110C726.209 110 728 108.209 728 106C728 103.791 726.209 102 724 102C721.791 102 720 103.791 720 106C720 108.209 721.791 110 724 110Z" fill="white"/>
<path d="M797 103H739C737.343 103 736 104.343 736 106C736 107.657 737.343 109 739 109H797C798.657 109 800 107.657 800 106C800 104.343 798.657 103 797 103Z" fill="white"/>
<path d="M500 109V118" stroke="#9C9FA2" stroke-width="1.3"/>
<path d="M500 154V164M360 176V164H640V176" stroke="#9C9FA2" stroke-width="1.3"/>
<path d="M360 212V222" stroke="#9C9FA2" stroke-width="1.3"/>
<path d="M360 240V250" stroke="#9C9FA2" stroke-width="1.3"/>
<path d="M360 282V289" stroke="#9C9FA2" stroke-width="1.3"/>
<path d="M360 307V311" stroke="#9C9FA2" stroke-width="1.3"/>
<path d="M640 194V204" stroke="#9C9FA2" stroke-width="1.3"/>
<path d="M640 240V250" stroke="#9C9FA2" stroke-width="1.3"/>
<path d="M640 268V278" stroke="#9C9FA2" stroke-width="1.3"/>
<path d="M640 314V324" stroke="#9C9FA2" stroke-width="1.3"/>
<path d="M640 342V349" stroke="#9C9FA2" stroke-width="1.3"/>
<path d="M640 367V371" stroke="#9C9FA2" stroke-width="1.3"/>
<path d="M360.5 156H352.5C351.119 156 350 157.119 350 158.5C350 159.881 351.119 161 352.5 161H360.5C361.881 161 363 159.881 363 158.5C363 157.119 361.881 156 360.5 156Z" fill="#D7352D"/>
<path d="M645.5 156H636.5C635.119 156 634 157.119 634 158.5C634 159.881 635.119 161 636.5 161H645.5C646.881 161 648 159.881 648 158.5C648 157.119 646.881 156 645.5 156Z" fill="#2D9D5A"/>
<path d="M521 95H479C475.134 95 472 98.134 472 102C472 105.866 475.134 109 479 109H521C524.866 109 528 105.866 528 102C528 98.134 524.866 95 521 95Z" fill="#E8E5E2" stroke="#DADEE1"/>
<path d="M515.5 99H484.5C483.119 99 482 100.119 482 101.5C482 102.881 483.119 104 484.5 104H515.5C516.881 104 518 102.881 518 101.5C518 100.119 516.881 99 515.5 99Z" fill="#9C9FA2"/>
<path d="M549 118H451C447.686 118 445 120.686 445 124V148C445 151.314 447.686 154 451 154H549C552.314 154 555 151.314 555 148V124C555 120.686 552.314 118 549 118Z" fill="white" stroke="#0A0B0D" stroke-width="1.3"/>
<path d="M490.5 126H457.5C456.119 126 455 127.119 455 128.5C455 129.881 456.119 131 457.5 131H490.5C491.881 131 493 129.881 493 128.5C493 127.119 491.881 126 490.5 126Z" fill="#9C9FA2"/>
<path d="M463 135H458C456.343 135 455 136.343 455 138V143C455 144.657 456.343 146 458 146H463C464.657 146 466 144.657 466 143V138C466 136.343 464.657 135 463 135Z" stroke="#9C9FA2" stroke-width="1.3"/>
<path d="M533 137H475C473.343 137 472 138.343 472 140C472 141.657 473.343 143 475 143H533C534.657 143 536 141.657 536 140C536 138.343 534.657 137 533 137Z" fill="#0A0B0D"/>
<path d="M409 176H311C307.686 176 305 178.686 305 182V206C305 209.314 307.686 212 311 212H409C412.314 212 415 209.314 415 206V182C415 178.686 412.314 176 409 176Z" fill="white" stroke="#DADEE1"/>
<path d="M323 186H316C314.343 186 313 187.343 313 189V196C313 197.657 314.343 199 316 199H323C324.657 199 326 197.657 326 196V189C326 187.343 324.657 186 323 186Z" fill="#D7352D"/>
<path d="M390 185H334C332.343 185 331 186.343 331 188C331 189.657 332.343 191 334 191H390C391.657 191 393 189.657 393 188C393 186.343 391.657 185 390 185Z" fill="#0A0B0D"/>
<path d="M372.5 196H333.5C332.119 196 331 197.119 331 198.5C331 199.881 332.119 201 333.5 201H372.5C373.881 201 375 199.881 375 198.5C375 197.119 373.881 196 372.5 196Z" fill="#9C9FA2"/>
<path d="M379 222H341C336.029 222 332 226.029 332 231C332 235.971 336.029 240 341 240H379C383.971 240 388 235.971 388 231C388 226.029 383.971 222 379 222Z" fill="white" stroke="#DADEE1"/>
<path d="M342 234C343.657 234 345 232.657 345 231C345 229.343 343.657 228 342 228C340.343 228 339 229.343 339 231C339 232.657 340.343 234 342 234Z" fill="#9C9FA2"/>
<path d="M375.5 228H352.5C351.119 228 350 229.119 350 230.5C350 231.881 351.119 233 352.5 233H375.5C376.881 233 378 231.881 378 230.5C378 229.119 376.881 228 375.5 228Z" fill="#9C9FA2"/>
<path d="M409 250H311C307.686 250 305 252.686 305 256V276C305 279.314 307.686 282 311 282H409C412.314 282 415 279.314 415 276V256C415 252.686 412.314 250 409 250Z" fill="white" stroke="#DADEE1"/>
<path d="M323 259H316C314.343 259 313 260.343 313 262V269C313 270.657 314.343 272 316 272H323C324.657 272 326 270.657 326 269V262C326 260.343 324.657 259 323 259Z" fill="#9C9FA2"/>
<path d="M388 263H334C332.343 263 331 264.343 331 266C331 267.657 332.343 269 334 269H388C389.657 269 391 267.657 391 266C391 264.343 389.657 263 388 263Z" fill="#0A0B0D"/>
<path d="M360 307C364.971 307 369 302.971 369 298C369 293.029 364.971 289 360 289C355.029 289 351 293.029 351 298C351 302.971 355.029 307 360 307Z" fill="#D7352D"/>
<path d="M361 294C361 293.448 360.552 293 360 293C359.448 293 359 293.448 359 294V302C359 302.552 359.448 303 360 303C360.552 303 361 302.552 361 302V294Z" fill="white"/>
<path d="M364 297H356C355.448 297 355 297.448 355 298C355 298.552 355.448 299 356 299H364C364.552 299 365 298.552 365 298C365 297.448 364.552 297 364 297Z" fill="white"/>
<path d="M378 311H342C338.134 311 335 314.134 335 318C335 321.866 338.134 325 342 325H378C381.866 325 385 321.866 385 318C385 314.134 381.866 311 378 311Z" fill="#E8E5E2" stroke="#DADEE1"/>
<path d="M373.5 315H346.5C345.119 315 344 316.119 344 317.5C344 318.881 345.119 320 346.5 320H373.5C374.881 320 376 318.881 376 317.5C376 316.119 374.881 315 373.5 315Z" fill="#9C9FA2"/>
<path d="M659 176H621C616.029 176 612 180.029 612 185C612 189.971 616.029 194 621 194H659C663.971 194 668 189.971 668 185C668 180.029 663.971 176 659 176Z" fill="white" stroke="#DADEE1"/>
<path d="M622 188C623.657 188 625 186.657 625 185C625 183.343 623.657 182 622 182C620.343 182 619 183.343 619 185C619 186.657 620.343 188 622 188Z" fill="#9C9FA2"/>
<path d="M655.5 182H632.5C631.119 182 630 183.119 630 184.5C630 185.881 631.119 187 632.5 187H655.5C656.881 187 658 185.881 658 184.5C658 183.119 656.881 182 655.5 182Z" fill="#9C9FA2"/>
<path d="M689 204H591C587.686 204 585 206.686 585 210V234C585 237.314 587.686 240 591 240H689C692.314 240 695 237.314 695 234V210C695 206.686 692.314 204 689 204Z" fill="white" stroke="#DADEE1"/>
<path d="M603 214H596C594.343 214 593 215.343 593 217V224C593 225.657 594.343 227 596 227H603C604.657 227 606 225.657 606 224V217C606 215.343 604.657 214 603 214Z" fill="#D7352D"/>
<path d="M668 213H614C612.343 213 611 214.343 611 216C611 217.657 612.343 219 614 219H668C669.657 219 671 217.657 671 216C671 214.343 669.657 213 668 213Z" fill="#0A0B0D"/>
<path d="M674.5 224H613.5C612.119 224 611 225.119 611 226.5C611 227.881 612.119 229 613.5 229H674.5C675.881 229 677 227.881 677 226.5C677 225.119 675.881 224 674.5 224Z" fill="#9C9FA2"/>
<path d="M659 250H621C616.029 250 612 254.029 612 259C612 263.971 616.029 268 621 268H659C663.971 268 668 263.971 668 259C668 254.029 663.971 250 659 250Z" fill="white" stroke="#DADEE1"/>
<path d="M622 262C623.657 262 625 260.657 625 259C625 257.343 623.657 256 622 256C620.343 256 619 257.343 619 259C619 260.657 620.343 262 622 262Z" fill="#9C9FA2"/>
<path d="M655.5 256H632.5C631.119 256 630 257.119 630 258.5C630 259.881 631.119 261 632.5 261H655.5C656.881 261 658 259.881 658 258.5C658 257.119 656.881 256 655.5 256Z" fill="#9C9FA2"/>
<path d="M689 278H591C587.686 278 585 280.686 585 284V308C585 311.314 587.686 314 591 314H689C692.314 314 695 311.314 695 308V284C695 280.686 692.314 278 689 278Z" fill="white" stroke="#D7352D" stroke-width="1.6"/>
<path d="M599 300C602.314 300 605 297.314 605 294C605 290.686 602.314 288 599 288C595.686 288 593 290.686 593 294C593 297.314 595.686 300 599 300Z" fill="#D7352D"/>
<path d="M599.8 291.3C599.8 290.858 599.442 290.5 599 290.5C598.558 290.5 598.2 290.858 598.2 291.3V294.2C598.2 294.642 598.558 295 599 295C599.442 295 599.8 294.642 599.8 294.2V291.3Z" fill="white"/>
<path d="M599 298.4C599.497 298.4 599.9 297.997 599.9 297.5C599.9 297.003 599.497 296.6 599 296.6C598.503 296.6 598.1 297.003 598.1 297.5C598.1 297.997 598.503 298.4 599 298.4Z" fill="white"/>
<path d="M668 287H614C612.343 287 611 288.343 611 290C611 291.657 612.343 293 614 293H668C669.657 293 671 291.657 671 290C671 288.343 669.657 287 668 287Z" fill="#0A0B0D"/>
<path d="M654.5 298H613.5C612.119 298 611 299.119 611 300.5C611 301.881 612.119 303 613.5 303H654.5C655.881 303 657 301.881 657 300.5C657 299.119 655.881 298 654.5 298Z" fill="#D7352D"/>
<path d="M659 324H621C616.029 324 612 328.029 612 333C612 337.971 616.029 342 621 342H659C663.971 342 668 337.971 668 333C668 328.029 663.971 324 659 324Z" fill="white" stroke="#DADEE1"/>
<path d="M622 336C623.657 336 625 334.657 625 333C625 331.343 623.657 330 622 330C620.343 330 619 331.343 619 333C619 334.657 620.343 336 622 336Z" fill="#9C9FA2"/>
<path d="M655.5 330H632.5C631.119 330 630 331.119 630 332.5C630 333.881 631.119 335 632.5 335H655.5C656.881 335 658 333.881 658 332.5C658 331.119 656.881 330 655.5 330Z" fill="#9C9FA2"/>
<path d="M640 367C644.971 367 649 362.971 649 358C649 353.029 644.971 349 640 349C635.029 349 631 353.029 631 358C631 362.971 635.029 367 640 367Z" fill="#D7352D"/>
<path d="M641 354C641 353.448 640.552 353 640 353C639.448 353 639 353.448 639 354V362C639 362.552 639.448 363 640 363C640.552 363 641 362.552 641 362V354Z" fill="white"/>
<path d="M644 357H636C635.448 357 635 357.448 635 358C635 358.552 635.448 359 636 359H644C644.552 359 645 358.552 645 358C645 357.448 644.552 357 644 357Z" fill="white"/>
<path d="M658 371H622C618.134 371 615 374.134 615 378C615 381.866 618.134 385 622 385H658C661.866 385 665 381.866 665 378C665 374.134 661.866 371 658 371Z" fill="#E8E5E2" stroke="#DADEE1"/>
<path d="M653.5 375H626.5C625.119 375 624 376.119 624 377.5C624 378.881 625.119 380 626.5 380H653.5C654.881 380 656 378.881 656 377.5C656 376.119 654.881 375 653.5 375Z" fill="#9C9FA2"/>
<path d="M820 415H174C169.582 415 166 418.582 166 423V467C166 471.418 169.582 475 174 475H820C824.418 475 828 471.418 828 467V423C828 418.582 824.418 415 820 415Z" stroke="#DADEE1"/>
<path d="M463 434H189C187.343 434 186 435.343 186 437C186 438.657 187.343 440 189 440H463C464.657 440 466 438.657 466 437C466 435.343 464.657 434 463 434Z" fill="#9C9FA2"/>
<path d="M403 448H189C187.343 448 186 449.343 186 451C186 452.657 187.343 454 189 454H403C404.657 454 406 452.657 406 451C406 449.343 404.657 448 403 448Z" fill="#9C9FA2"/>
<path d="M704 431H636C632.686 431 630 433.686 630 437V453C630 456.314 632.686 459 636 459H704C707.314 459 710 456.314 710 453V437C710 433.686 707.314 431 704 431Z" fill="white" stroke="#0A0B0D" stroke-width="1.5"/>
<path d="M685 442H655C653.343 442 652 443.343 652 445C652 446.657 653.343 448 655 448H685C686.657 448 688 446.657 688 445C688 443.343 686.657 442 685 442Z" fill="#0A0B0D"/>
<path d="M794 431H726C722.686 431 720 433.686 720 437V453C720 456.314 722.686 459 726 459H794C797.314 459 800 456.314 800 453V437C800 433.686 797.314 431 794 431Z" fill="#D7352D"/>
<path d="M773 442H747C745.343 442 744 443.343 744 445C744 446.657 745.343 448 747 448H773C774.657 448 776 446.657 776 445C776 443.343 774.657 442 773 442Z" fill="white"/>
</g>
<path d="M829 1H11C5.47715 1 1 5.47715 1 11V480C1 485.523 5.47715 490 11 490H829C834.523 490 839 485.523 839 480V11C839 5.47715 834.523 1 829 1Z" stroke="#0A0B0D" stroke-width="2"/>
</g>
<defs>
<clipPath id="clip0_74_2574">
<rect width="840" height="491" fill="white"/>
</clipPath>
</defs>
</g>
</svg>
